<?xml version="1.0" encoding="utf-8"?>
<!-- Generator: Adobe Illustrator 18.1.1, SVG Export Plug-In . SVG Version: 6.00 Build 0)  -->
<svg version="1.1" id="Layer_1" xmlns="http://www.w3.org/2000/svg" xmlns:xlink="http://www.w3.org/1999/xlink" x="0px" y="0px"
	 width="176.4px" height="176.4px" viewBox="0 0 176.4 176.4" enable-background="new 0 0 176.4 176.4" xml:space="preserve">
<g>
	<g>
		
			<image overflow="visible" opacity="0.75" width="735" height="735" xlink:href="8DE86B53284948C1.png"  transform="matrix(0.24 0 0 0.24 0 0)">
		</image>
		<g>
			<circle fill="#FBED21" cx="82" cy="82" r="74.9"/>
		</g>
	</g>
	<g>
		<path fill="#010101" d="M47.4,61.8l-2.9,0.3l-0.8-3.2l-3.5,0.4L40,62.6l-2.6,0.3l1.1-18.4l4.2-0.4L47.4,61.8z M40.3,56.7l2.8-0.3
			l-2.3-9L40.3,56.7z"/>
		<path fill="#010101" d="M52,58l0.7-15l2.6-0.3l-1,18.4l-4.3,0.4l-4.6-17.9l2.9-0.3L52,58z"/>
		<path fill="#010101" d="M67.1,59.9l-2.9,0.3l-0.8-3.2l-3.5,0.4l-0.2,3.3l-2.6,0.3l1.1-18.4l4.2-0.4L67.1,59.9z M60,54.8l2.8-0.3
			l-2.3-9L60,54.8z"/>
		<path fill="#010101" d="M66.5,41.6l2.9-0.3l1.8,18.2l-2.9,0.3L66.5,41.6z"/>
		<path fill="#010101" d="M71.5,41.1l2.9-0.3l1.6,15.6l4.7-0.5l0.3,2.6l-7.5,0.8L71.5,41.1z"/>
		<path fill="#010101" d="M91.3,57.4l-2.9,0.3l-0.8-3.2l-3.5,0.4L84,58.1l-2.6,0.3L82.4,40l4.2-0.4L91.3,57.4z M84.2,52.3L87,52
			l-2.3-9L84.2,52.3z"/>
		<path fill="#010101" d="M95.1,38.7c1.5-0.2,2.6,0.1,3.3,0.7c0.7,0.6,1.2,1.6,1.3,3l0.1,0.6c0.1,0.9,0,1.7-0.2,2.4
			c-0.2,0.6-0.7,1.1-1.3,1.5c0.8,0.2,1.4,0.6,1.8,1.3c0.4,0.6,0.6,1.4,0.7,2.4l0.1,1.5c0.1,1.4-0.1,2.5-0.8,3.3
			c-0.7,0.8-1.7,1.3-3.1,1.4l-4.5,0.5l-1.8-18.2L95.1,38.7z M93.9,41.4l0.5,4.8l1.1-0.1c0.5-0.1,0.9-0.2,1.2-0.5
			c0.3-0.3,0.4-0.8,0.3-1.5L97,43c-0.1-0.7-0.2-1.1-0.5-1.4c-0.3-0.3-0.6-0.4-1.1-0.3L93.9,41.4z M94.7,48.8l0.6,5.6l1.6-0.2
			c0.5,0,0.8-0.2,1.1-0.5c0.2-0.3,0.3-0.8,0.2-1.4L98,50.7c-0.1-0.8-0.3-1.4-0.6-1.7c-0.3-0.3-0.8-0.4-1.5-0.3L94.7,48.8z"/>
		<path fill="#010101" d="M101.4,38.1l2.9-0.3l1.6,15.6l4.7-0.5l0.3,2.6l-7.5,0.8L101.4,38.1z"/>
		<path fill="#010101" d="M113.8,44.5l3.9-0.4l0.3,2.6l-3.9,0.4l0.5,5.3l4.9-0.5l0.3,2.6l-7.8,0.8l-1.8-18.2l7.8-0.8l0.3,2.6
			l-4.9,0.5L113.8,44.5z"/>
		<path fill="#010101" d="M33.3,68.4l8.8-0.9l0.3,2.6l-3,0.3L41,86l-2.9,0.3l-1.6-15.6l-3,0.3L33.3,68.4z"/>
		<path fill="#010101" d="M43.6,71.8c-0.1-1.5,0.1-2.6,0.8-3.5c0.7-0.9,1.7-1.4,3.1-1.5s2.5,0.1,3.3,0.9c0.8,0.7,1.3,1.8,1.5,3.3
			l1,9.4c0.1,1.5-0.1,2.6-0.8,3.5c-0.7,0.9-1.7,1.4-3.1,1.5c-1.4,0.1-2.5-0.1-3.3-0.9c-0.8-0.7-1.3-1.8-1.5-3.3L43.6,71.8z
			 M47.4,81.1c0.1,0.7,0.2,1.1,0.5,1.3c0.3,0.2,0.7,0.3,1.1,0.3s0.8-0.2,1-0.5c0.2-0.3,0.3-0.8,0.3-1.4l-1-9.8
			c-0.1-0.7-0.2-1.1-0.5-1.3c-0.3-0.2-0.7-0.3-1.1-0.3c-0.4,0-0.8,0.2-1,0.5c-0.2,0.3-0.3,0.8-0.3,1.4L47.4,81.1z"/>
		<path fill="#010101" d="M63.5,80.3l0.7-15l2.6-0.3l-1,18.4l-4.3,0.4L56.9,66l2.9-0.3L63.5,80.3z"/>
		<path fill="#010101" d="M68.1,64.9l2.9-0.3l1.8,18.2l-2.9,0.3L68.1,64.9z"/>
		<path fill="#010101" d="M76.6,71.8l3.9-0.4l0.3,2.6l-3.9,0.4l0.5,5.3l4.9-0.5l0.3,2.6l-7.8,0.8L73,64.4l7.8-0.8l0.3,2.6l-4.9,0.5
			L76.6,71.8z"/>
		<path fill="#010101" d="M89.7,71.3l-0.1,9.8l-3.9,0.4l-3.9-18l2.8-0.3l3,14.2L87.6,63l2.8-0.3L93.2,77l0-14.6l2.5-0.3l-0.2,18.4
			l-3.8,0.4L89.7,71.3z"/>
		<path fill="#010101" d="M101.4,66c-0.1-1.5,0.1-2.6,0.8-3.5c0.7-0.9,1.7-1.4,3.1-1.5s2.5,0.1,3.3,0.9s1.3,1.8,1.5,3.3l1,9.4
			c0.1,1.5-0.1,2.6-0.8,3.5c-0.7,0.9-1.7,1.4-3.1,1.5c-1.4,0.1-2.5-0.1-3.3-0.9c-0.8-0.7-1.3-1.8-1.5-3.3L101.4,66z M105.2,75.3
			c0.1,0.7,0.2,1.1,0.5,1.3c0.3,0.2,0.7,0.3,1.1,0.3c0.4,0,0.8-0.2,1-0.5c0.2-0.3,0.3-0.8,0.3-1.4l-1-9.8c-0.1-0.7-0.2-1.1-0.5-1.3
			c-0.3-0.2-0.7-0.3-1.1-0.3c-0.4,0-0.8,0.2-1,0.5c-0.2,0.3-0.3,0.8-0.3,1.4L105.2,75.3z"/>
		<path fill="#010101" d="M114.5,65.3l1.3,13.2l-2.6,0.3l-1.8-18.2l3.6-0.4l4,10.6l-1.1-10.9l2.5-0.3l1.8,18.2l-2.9,0.3L114.5,65.3z
			"/>
		<path fill="#010101" d="M48.6,108.7l-2.9,0.3l-0.8-3.2l-3.5,0.4l-0.2,3.3l-2.6,0.3l1.1-18.4l4.2-0.4L48.6,108.7z M41.5,103.6
			l2.8-0.3l-2.3-9L41.5,103.6z"/>
		<path fill="#010101" d="M48.1,90.4l2.9-0.3l1.6,15.6l4.7-0.5l0.3,2.6l-7.5,0.8L48.1,90.4z"/>
		<path fill="#010101" d="M56.9,89.6l2.9-0.3l1.6,15.6l4.7-0.5l0.3,2.6l-7.5,0.8L56.9,89.6z"/>
		<path fill="#010101" d="M77.1,100.5l0.6-13.1l4-0.4l1.8,18.2l-2.7,0.3l-1.3-13l-0.7,13.2l-2.7,0.3l-3.4-12.6l1.3,12.8l-2.5,0.3
			l-1.8-18.2l4-0.4L77.1,100.5z"/>
		<path fill="#010101" d="M84,91.2c-0.1-1.5,0.1-2.6,0.8-3.5c0.7-0.9,1.7-1.4,3.1-1.5c1.4-0.1,2.5,0.1,3.3,0.9
			c0.8,0.7,1.3,1.8,1.5,3.3l1,9.4c0.1,1.5-0.1,2.6-0.8,3.5c-0.7,0.9-1.7,1.4-3.1,1.5c-1.4,0.1-2.5-0.1-3.3-0.9
			c-0.8-0.7-1.3-1.8-1.5-3.3L84,91.2z M87.8,100.6c0.1,0.7,0.2,1.1,0.5,1.3c0.3,0.2,0.7,0.3,1.1,0.3c0.4,0,0.8-0.2,1-0.5
			c0.2-0.3,0.3-0.8,0.3-1.4l-1-9.8c-0.1-0.7-0.2-1.1-0.5-1.3c-0.3-0.2-0.7-0.3-1.1-0.3c-0.5,0-0.8,0.2-1,0.5
			c-0.2,0.3-0.3,0.8-0.3,1.4L87.8,100.6z"/>
		<path fill="#010101" d="M98.3,85.4c1.5-0.2,2.6,0.1,3.3,0.7c0.7,0.6,1.2,1.6,1.3,3l0.1,0.6c0.1,0.9,0,1.7-0.2,2.4
			c-0.2,0.6-0.7,1.1-1.3,1.5c0.8,0.2,1.4,0.6,1.8,1.3s0.6,1.4,0.7,2.4l0.1,1.5c0.1,1.4-0.1,2.5-0.8,3.3c-0.7,0.8-1.7,1.3-3.1,1.4
			l-4.5,0.5L94,85.8L98.3,85.4z M97.1,88.1l0.5,4.8l1.1-0.1c0.5-0.1,0.9-0.2,1.2-0.5c0.3-0.3,0.4-0.8,0.3-1.5l-0.1-1
			c-0.1-0.7-0.2-1.1-0.5-1.4C99.4,88,99,87.9,98.5,88L97.1,88.1z M97.9,95.5l0.6,5.6l1.6-0.2c0.5,0,0.8-0.2,1.1-0.5
			c0.2-0.3,0.3-0.8,0.2-1.4l-0.2-1.6c-0.1-0.8-0.3-1.4-0.6-1.7c-0.3-0.3-0.8-0.4-1.5-0.3L97.9,95.5z"/>
		<path fill="#010101" d="M104.6,84.7l2.9-0.3l1.8,18.2l-2.9,0.3L104.6,84.7z"/>
		<path fill="#010101" d="M109.5,84.2l2.9-0.3l1.6,15.6l4.7-0.5l0.3,2.6l-7.5,0.8L109.5,84.2z"/>
		<path fill="#010101" d="M121.9,90.7l3.9-0.4l0.3,2.6l-3.9,0.4l0.5,5.3l4.9-0.5l0.3,2.6l-7.8,0.8l-1.8-18.2l7.8-0.8l0.3,2.6
			l-4.9,0.5L121.9,90.7z"/>
		<path fill="#010101" d="M52.7,113.5l4.5-0.5c1.4-0.1,2.5,0.1,3.3,0.8c0.8,0.7,1.2,1.8,1.4,3.2l0.9,9.2c0.1,1.5-0.1,2.6-0.7,3.5
			s-1.7,1.3-3.1,1.5l-4.5,0.5L52.7,113.5z M55.8,115.8l1.3,13l1.6-0.2c0.4,0,0.8-0.2,1-0.5c0.2-0.3,0.3-0.8,0.3-1.4l-1-9.4
			c-0.1-0.7-0.2-1.1-0.5-1.3s-0.7-0.3-1.1-0.3L55.8,115.8z"/>
		<path fill="#010101" d="M66.9,119.8l3.9-0.4l0.3,2.6l-3.9,0.4l0.5,5.3l4.9-0.5l0.3,2.6l-7.8,0.8l-1.8-18.2l7.8-0.8l0.3,2.6
			l-4.9,0.5L66.9,119.8z"/>
		<path fill="#010101" d="M78.6,125.8l0.7-15l2.6-0.3l-1,18.4l-4.3,0.4L72,111.5l2.9-0.3L78.6,125.8z"/>
		<path fill="#010101" d="M83.2,110.4l2.9-0.3l1.8,18.2l-2.9,0.3L83.2,110.4z"/>
		<path fill="#010101" d="M97.6,120.5l0.2,2.4c0.1,1.5-0.1,2.6-0.7,3.5c-0.6,0.9-1.7,1.4-3.1,1.5c-1.4,0.1-2.5-0.1-3.3-0.9
			c-0.8-0.7-1.3-1.8-1.4-3.3l-1-9.4c-0.1-1.5,0.1-2.6,0.7-3.5c0.6-0.9,1.7-1.4,3.1-1.5c1.4-0.1,2.5,0.1,3.3,0.9s1.3,1.8,1.4,3.3
			l0.2,1.8l-2.7,0.3l-0.2-1.9c-0.1-0.7-0.2-1.1-0.5-1.3c-0.3-0.2-0.7-0.3-1.1-0.3c-0.5,0-0.8,0.2-1,0.5c-0.2,0.3-0.3,0.8-0.3,1.4
			l1,9.8c0.1,0.7,0.2,1.1,0.5,1.3c0.3,0.2,0.7,0.3,1.1,0.3c0.4,0,0.8-0.2,1-0.5c0.2-0.3,0.3-0.8,0.3-1.4l-0.3-2.6L97.6,120.5z"/>
		<path fill="#010101" d="M101.8,116.3l3.9-0.4l0.3,2.6l-3.9,0.4l0.5,5.3l4.9-0.5l0.3,2.6l-7.8,0.8l-1.8-18.2l7.8-0.8l0.3,2.6
			l-4.9,0.5L101.8,116.3z"/>
		<path fill="#010101" d="M107.8,112.3c-0.1-1.5,0.1-2.6,0.7-3.5c0.6-0.9,1.6-1.4,3-1.5c1.4-0.1,2.5,0.1,3.3,0.9
			c0.8,0.7,1.2,1.8,1.4,3.3l0.1,0.6l-2.7,0.3l-0.1-0.8c-0.1-0.7-0.2-1.1-0.5-1.3c-0.3-0.2-0.6-0.3-1.1-0.3c-0.4,0-0.8,0.2-1,0.5
			c-0.2,0.3-0.3,0.8-0.2,1.4c0.1,0.6,0.3,1.2,0.6,1.6c0.3,0.4,0.7,0.9,1.2,1.2c0.5,0.4,0.9,0.8,1.5,1.1c0.5,0.4,1,0.8,1.5,1.3
			s0.9,1,1.2,1.6c0.3,0.6,0.6,1.3,0.6,2.2c0.1,1.5-0.1,2.6-0.7,3.5c-0.6,0.9-1.7,1.4-3.1,1.5s-2.5-0.1-3.3-0.9
			c-0.8-0.7-1.3-1.8-1.4-3.3l-0.1-1.1l2.7-0.3l0.1,1.3c0.1,0.7,0.2,1.1,0.5,1.3s0.7,0.3,1.1,0.3c0.5,0,0.8-0.2,1-0.5
			c0.2-0.3,0.3-0.8,0.3-1.4c-0.1-0.6-0.3-1.2-0.6-1.6c-0.3-0.4-0.7-0.9-1.2-1.2c-0.5-0.4-0.9-0.8-1.5-1.1c-0.5-0.4-1-0.8-1.5-1.3
			c-0.5-0.5-0.9-1-1.2-1.6S107.9,113.2,107.8,112.3z"/>
	</g>
	<circle fill="none" stroke="#221F1F" stroke-width="0.9077" stroke-miterlimit="10" cx="82.5" cy="82.6" r="69.8"/>
</g>
<g>
</g>
<g>
</g>
<g>
</g>
<g>
</g>
<g>
</g>
<g>
</g>
</svg>
