<?xml version="1.0" encoding="utf-8"?>
<!-- Generator: Adobe Illustrator 18.1.1, SVG Export Plug-In . SVG Version: 6.00 Build 0)  -->
<svg version="1.1" id="Layer_1" xmlns="http://www.w3.org/2000/svg" xmlns:xlink="http://www.w3.org/1999/xlink" x="0px" y="0px"
	 width="25.5px" height="18.1px" viewBox="0 0 25.5 18.1" enable-background="new 0 0 25.5 18.1" xml:space="preserve">
<path fill="#1E2832" d="M14.5,14.1c-0.5,0.5-1.1,0.7-1.7,0.7c-0.7,0-1.3-0.3-1.7-0.7L6.9,10L0,16.9V17c0,0.6,0.5,1.1,1.1,1.1h23.4
	c0.6,0,1.1-0.5,1.1-1.1v-0.1L18.6,10L14.5,14.1z M0,3.1V15l6-6L0,3.1z M24.5,0H1.1C0.5,0,0,0.5,0,1.1v0.1l12,12
	c0.2,0.2,0.5,0.3,0.8,0.3c0.3,0,0.6-0.1,0.8-0.3l12-12V1.1C25.5,0.5,25,0,24.5,0z M25.5,15V3.1l-6,6L25.5,15z"/>
</svg>
