<?xml version="1.0" encoding="utf-8"?>
<!-- Generator: Adobe Illustrator 18.1.1, SVG Export Plug-In . SVG Version: 6.00 Build 0)  -->
<svg version="1.1" id="Layer_1" xmlns="http://www.w3.org/2000/svg" xmlns:xlink="http://www.w3.org/1999/xlink" x="0px" y="0px"
	 width="17.9px" height="17.9px" viewBox="-931.2 951.3 17.9 17.9" enable-background="new -931.2 951.3 17.9 17.9"
	 xml:space="preserve">
<g>
	<path fill="#FFFFFF" d="M-930.3,951.3h16.3c0.5,0,0.7,0.4,0.7,1.3v15.3c0,0.8-0.3,1.3-0.9,1.3h-16.1c-0.6,0-0.9-0.3-0.9-1v-15.9
		C-931.1,951.6-930.8,951.3-930.3,951.3z M-920.9,956.5v2.3l-0.1,0.1h-1.7l-0.1,0.1v2.3l0.1,0.1h1.6c0.1,0,0.1,0.1,0.1,0.3v6.2l0,0
		l0,0l0.1,0.1h2.5l0.1-0.1v-6.4l0.1-0.1h2.2l0.3-2.5h-2.3l-0.1-0.1v-2.3c0-0.2,0.3-0.3,1-0.3h1.3l0.1-0.1v-2.2l-0.1-0.1h-2.3
		c-1.4,0-2.3,0.6-2.7,1.8C-920.9,955.8-920.9,956.1-920.9,956.5z"/>
</g>
</svg>
