<?xml version="1.0" encoding="utf-8"?>
<!-- Generator: Adobe Illustrator 18.1.1, SVG Export Plug-In . SVG Version: 6.00 Build 0)  -->
<svg version="1.1" id="Layer_1" xmlns="http://www.w3.org/2000/svg" xmlns:xlink="http://www.w3.org/1999/xlink" x="0px" y="0px"
	 width="17.9px" height="17.9px" viewBox="-950 952.1 17.9 17.9" enable-background="new -950 952.1 17.9 17.9"
	 xml:space="preserve">
<g>
	<path fill="#231F20" d="M-1880.3,1903.4h16.3c0.5,0,0.7,0.4,0.7,1.3v15.3c0,0.8-0.3,1.3-0.9,1.3h-16.1c-0.6,0-0.9-0.3-0.9-1v-15.9
		C-1881.1,1903.7-1880.8,1903.4-1880.3,1903.4z M-1870.9,1908.6v2.3l-0.1,0.1h-1.7l-0.1,0.1v2.3l0.1,0.1h1.6c0.1,0,0.1,0.1,0.1,0.3
		v6.2l0,0l0,0l0.1,0.1h2.5l0.1-0.1v-6.4l0.1-0.1h2.2l0.3-2.5h-2.3l-0.1-0.1v-2.3c0-0.2,0.3-0.3,1-0.3h1.3l0.1-0.1v-2.2l-0.1-0.1
		h-2.3c-1.4,0-2.3,0.6-2.7,1.8C-1870.9,1907.9-1870.9,1908.2-1870.9,1908.6z"/>
</g>
</svg>
