<?xml version="1.0" encoding="utf-8"?>
<!-- Generator: Adobe Illustrator 18.1.1, SVG Export Plug-In . SVG Version: 6.00 Build 0)  -->
<svg version="1.1" id="Layer_1" xmlns="http://www.w3.org/2000/svg" xmlns:xlink="http://www.w3.org/1999/xlink" x="0px" y="0px"
	 width="24.1px" height="20.6px" viewBox="0 0 24.1 20.6" enable-background="new 0 0 24.1 20.6" xml:space="preserve">
<g>
	<path fill="#FFFFFF" d="M23.6,18.2H2.4V0.5C2.4,0.2,2.2,0,1.9,0H0.5C0.2,0,0,0.2,0,0.5v18.2v1.4c0,0.3,0.2,0.5,0.5,0.5h1.4h21.7
		c0.3,0,0.5-0.2,0.5-0.5v-1.4C24.1,18.4,23.9,18.2,23.6,18.2z"/>
	<path fill="#FFFFFF" d="M12,10.2l2.4,2.4l5.9-5.9l1.4,1.4c0,0,0,0,0.1,0c0.1,0,0.1,0,0.1-0.1l0.8-5.3c0-0.1-0.1-0.2-0.2-0.2
		l-5.3,0.8c-0.1,0-0.1,0.1-0.1,0.1c0,0,0,0,0,0.1L18.7,5l-4.2,4.2L12,6.8l-7.3,7.3l1.7,1.7L12,10.2z"/>
</g>
</svg>
