<?xml version="1.0" encoding="utf-8"?>
<!-- Generator: Adobe Illustrator 18.1.1, SVG Export Plug-In . SVG Version: 6.00 Build 0)  -->
<svg version="1.1" id="Layer_1" xmlns="http://www.w3.org/2000/svg" xmlns:xlink="http://www.w3.org/1999/xlink" x="0px" y="0px"
	 width="23px" height="23px" viewBox="0 0 23 23" enable-background="new 0 0 23 23" xml:space="preserve">
<path fill="#FFFFFF" d="M11.5,0C5.2,0,0,5.2,0,11.5C0,17.8,5.2,23,11.5,23S23,17.8,23,11.5C23,5.2,17.8,0,11.5,0z M17,9.6
	c0,0,0-0.1,0.1-0.1c0.2-0.4,0.4-0.8,0.8-1c0.2-0.1,0.3-0.2,0.2-0.4c0-0.1,0-0.1,0.1-0.3c0.1-0.1,0.2-0.2,0.3-0.3
	c0.4,0.1,0.8,0,1.1-0.1c0.2-0.1,0.5-0.1,0.7-0.1l0,0c-0.1,0.1-0.1,0.2,0,0.3c0,0.1,0.1,0.2,0.3,0.2c0.2,0,0.4,0.1,0.6,0.2
	c0.1,0,0.2,0.1,0.3,0.1c0.3,1.1,0.5,2.2,0.5,3.3c0,1.1-0.2,2.1-0.5,3.2c0,0,0,0,0,0c0-0.2-0.1-0.3-0.1-0.5c0-0.1-0.1-0.2-0.1-0.3
	c0-0.1-0.1-0.3-0.1-0.4c0-0.3-0.1-0.6-0.2-0.8c0,0,0-0.1,0-0.1c0-0.1-0.1-0.2-0.2-0.3c0,0-0.1,0-0.1,0c0,0-0.1-0.1-0.2-0.1
	c-0.2-0.1-0.3-0.2-0.6-0.3c-0.1,0-0.1,0-0.2,0c-0.4-0.1-0.8,0-1.1,0.2l-0.1,0c-0.2,0-0.4,0.1-0.6,0.1c-0.2-0.2-0.4-0.4-0.6-0.6
	c-0.1-0.2-0.2-0.3-0.4-0.5c0-0.1,0-0.3,0.1-0.4C17.1,10.3,17.2,9.9,17,9.6z M13.9,2.3c0.1-0.1,0.4-0.1,0.4-0.4c0-0.1,0-0.3-0.1-0.5
	c0,0,0,0,0,0c0,0,0,0,0,0c0.4,0.1,0.9,0.3,1.3,0.4C15.3,1.9,15.1,2,14.9,2c-0.1,0-0.1,0-0.1,0.1c-0.2,0.1-0.3,0.3-0.4,0.4
	c-0.1,0.1-0.2,0.2-0.3,0.3C14,2.7,13.9,2.6,13.9,2.3C13.9,2.3,13.9,2.3,13.9,2.3z M21.3,7.1c-0.1,0-0.1,0.1-0.2,0.2
	c0,0-0.1,0-0.1-0.1c0,0,0,0,0-0.1c0.1-0.1,0.1-0.2,0-0.3c0-0.1-0.1-0.2-0.2-0.2c0,0-0.1,0-0.1,0c0-0.1,0-0.1,0.1-0.2
	c0,0,0.1,0,0.1,0C21.1,6.7,21.2,6.9,21.3,7.1z M19.9,5.5c-0.1-0.1-0.3,0-0.4,0c0,0,0,0,0,0c0-0.2,0-0.3-0.1-0.4c0,0,0.1,0,0.1-0.1
	c0,0,0.1-0.1,0.2-0.1c0.1,0.2,0.2,0.3,0.4,0.5C20,5.5,19.9,5.6,19.9,5.5z M19.5,6.6C19.6,6.6,19.6,6.6,19.5,6.6
	c0.2-0.1,0.3-0.2,0.4-0.3c0,0,0,0,0,0c0,0.1,0,0.2,0,0.3C19.8,6.6,19.7,6.6,19.5,6.6C19.5,6.6,19.5,6.6,19.5,6.6z M18.9,6.2
	c-0.1,0.1-0.1,0.2-0.1,0.4c0,0,0,0.1-0.1,0.1c-0.1,0-0.2,0-0.3,0c0,0-0.1,0-0.1,0c0,0,0,0,0-0.1c0-0.1,0.1-0.2,0.1-0.4
	c0,0,0.1,0,0.1,0C18.7,6.2,18.8,6.2,18.9,6.2z M10.1,5c0,0-0.1,0-0.1,0.1C9.6,5.3,9.4,5.5,9.2,5.9C9,6,8.9,6.1,8.8,6.3
	C8.6,6.4,8.5,6.5,8.4,6.5C8.3,6.6,8.2,6.8,8.3,7C8.2,7,8,7.1,7.9,7.2C7.7,7.3,7.4,7.5,7.3,7.8C7.1,7.7,6.9,7.7,6.5,7.7
	c0,0-0.1,0-0.1,0c-0.1,0-0.2,0.1-0.3,0.2c0,0,0,0,0,0c-0.1,0-0.2,0-0.3,0c0,0-0.1,0-0.1,0C5.2,7.9,4.8,8.3,4.6,8.9
	c-0.1,0.4-0.1,0.8,0.1,1.2C4.6,10,4.4,9.9,4.2,9.8l0,0c0-0.1,0-0.1-0.1-0.2l0-0.1c0-0.4-0.2-0.7-0.4-0.9C3.6,8.4,3.4,8.2,3.5,7.9
	c0-0.1,0-0.2-0.1-0.3C3.2,7.5,3.1,7.5,3,7.5c0,0,0,0,0,0C2.9,7.4,2.9,7.3,2.8,7.2c0-0.3,0-0.5,0-0.8l0,0l0-0.2L2.9,6
	c0.2-0.3,0.4-0.6,0.4-1C4,4.1,4.9,3.3,5.9,2.7c0.1,0,0.1,0,0.2,0c0.1,0,0.3,0,0.4-0.2c0.1-0.1,0.1-0.2,0.1-0.3c0,0,0.1,0,0.1-0.1
	c0,0,0,0,0.1,0c0,0,0.1,0,0.2,0c0.1,0,0.2-0.1,0.2-0.1C7.3,2,7.4,2,7.4,1.9c0,0,0,0,0,0c0,0,0.1,0,0.1-0.1c0,0,0,0,0,0
	C7.7,2,7.7,2.1,7.9,2.2C8,2.4,8.2,2.4,8.3,2.4c0.2,0,0.3-0.1,0.5-0.1c0,0,0.1,0.1,0.2,0.1c0,0,0,0,0,0C8.5,2.5,8.1,2.7,7.8,3.1
	c-0.1,0.1-0.1,0.4,0,0.5l0.1,0.1C8,3.8,8.2,4,8.4,4.1c0,0.2,0.1,0.4,0.3,0.5c0,0.1,0,0.1,0.1,0.2C8.8,4.9,9,4.9,9.1,4.9
	c0.2,0,0.3-0.1,0.4-0.1c0.2-0.1,0.4-0.3,0.5-0.5c0,0,0-0.1,0.1-0.1c0.2-0.1,0.3-0.2,0.4-0.4c0.1-0.1,0-0.2,0-0.3
	c0.1-0.1,0.2-0.2,0.2-0.3c0,0,0.1,0,0.1,0c0,0.1,0,0.1,0,0.2c0,0.1,0,0.1,0.1,0.2c0,0.1,0.1,0.1,0.1,0.2c0.1,0.1,0.2,0.1,0.3,0.1
	c0.1,0,0.2,0,0.3-0.1c0,0.1,0.1,0.3,0.1,0.4c-0.1,0.1-0.1,0.1-0.1,0.2c0,0-0.1,0-0.1,0.1c-0.1,0.1-0.2,0.1-0.3,0.1
	c0,0-0.1,0-0.2-0.1c0,0-0.1,0-0.1,0c0,0-0.1,0-0.1,0c-0.2,0-0.3,0.1-0.4,0.2c-0.1,0-0.2,0.1-0.2,0.1C10.1,4.8,10,4.9,10.1,5z
	 M9.6,3.5c0,0-0.1,0-0.1,0.1c-0.1,0-0.2,0.2-0.2,0.3c0,0,0,0.1-0.1,0.1c0,0,0,0,0,0c0,0,0,0-0.1,0c0-0.1,0-0.2,0-0.3
	c0-0.1-0.1-0.2-0.2-0.2c-0.1,0-0.2-0.1-0.3-0.2C8.8,3.2,9,3.1,9.2,3C9.4,3,9.5,2.9,9.7,2.8c0,0,0.1-0.1,0.1-0.1c0,0,0-0.1,0.1-0.1
	c0,0,0,0,0,0c0,0,0,0,0.1,0c0,0,0,0,0.1,0c0,0,0,0.1,0,0.1c0,0-0.1,0.1-0.1,0.1C9.8,3.1,9.6,3.2,9.6,3.5C9.6,3.5,9.6,3.5,9.6,3.5z
	 M10,1.9c-0.1,0-0.2,0-0.3,0c0,0,0,0,0,0c0,0,0-0.1,0-0.1C9.8,1.8,9.9,1.6,10,1.6c0,0,0,0,0,0c0,0,0.1,0,0.1,0c0,0,0.1,0,0.1,0
	l0.1,0c0,0,0,0,0.1,0C10.3,1.7,10.1,1.9,10,1.9z M9.6,0.9C9.6,1,9.5,1,9.5,1c0,0,0,0.1,0,0.1c0,0-0.1,0-0.1,0l0.1,0.3L9.3,1.2
	C9.2,1.2,9.1,1.2,9,1.3c0,0,0,0.1-0.1,0.1c-0.2,0-0.3,0.1-0.4,0.2c-0.1,0-0.2,0.1-0.2,0.1c0,0-0.1-0.1-0.1-0.1c0-0.1-0.1-0.1,0-0.2
	c0,0,0-0.1,0-0.1C8.7,1.1,9.1,1,9.6,0.9C9.6,0.9,9.6,0.9,9.6,0.9z M0.7,11.5c0-1.8,0.5-3.6,1.3-5.1v0C2,6.7,2,7,2,7.3
	c0,0.1,0,0.2,0.1,0.2C2.3,7.7,2.4,7.8,2.5,8c0,0.1,0.1,0.1,0.1,0.2c0,0.1,0.1,0.1,0.2,0.1C2.8,8.6,3,8.9,3.2,9.1
	c0.2,0.2,0.2,0.4,0.2,0.5c0,0.1,0,0.2,0.1,0.2l0,0.1c0,0.1,0.1,0.1,0.1,0.2c0,0.1,0.1,0.2,0.1,0.2l0.1,0.1c0.3,0.2,0.7,0.5,1.3,0.5
	c0.2,0.2,0.4,0.3,0.6,0.3C6,11.3,6,11.3,6,11.4c0,0.1,0.1,0.3,0.2,0.3c0.2,0.1,0.4,0.2,0.5,0.3c0.1,0.1,0.2,0.1,0.3,0.2
	c0,0,0.1,0,0.1,0c0,0,0,0,0.1,0c0,0.1-0.1,0.2-0.2,0.3c-0.2,0.2-0.4,0.6-0.3,1c0,0.1-0.1,0.1-0.1,0.1c-0.1,0.1-0.1,0.3,0,0.4
	c0.3,0.5,0.7,1,0.9,1.6c0,0.1,0.1,0.2,0.2,0.2c0.7,0.2,0.9,0.7,0.8,1.7c0,0.2,0,0.5,0,0.7c0,0.1,0,0.2,0,0.3c0,0.2,0,0.4,0,0.7
	c0,0.5,0,0.9,0.3,1.3c0,0.1,0,0.1,0,0.2c0,0,0,0.1,0,0.1c0,0.1,0,0.2,0,0.3c0,0,0,0.1,0.1,0.1c0,0.2,0.1,0.3,0.2,0.4
	c0.1,0.1,0.1,0.1,0.1,0.1c0,0.1,0,0.2,0.1,0.2C4.5,21.1,0.7,16.7,0.7,11.5z M7.5,13.5c-0.1-0.1,0-0.1,0.2-0.5
	c0.2-0.3,0.4-0.7,0.3-1.1c0.1-0.1,0.2-0.2,0.4-0.3c0.1,0.1,0.2,0.1,0.3,0c0,0,0.1,0.1,0.1,0.1c0.1,0.1,0.3,0.1,0.4,0
	c0,0,0.2,0,0.4,0c0.1,0,0.2,0,0.2,0C9.9,11.9,10,12,10,12c0.1,0.1,0.2,0.2,0.3,0.3c0.1,0.1,0.2,0.2,0.4,0.2c0.4-0.1,0.5,0,0.6,0.6
	c0,0.1,0.1,0.1,0.1,0.2c0.3,0.3,0.8,0.4,1.2,0.6c0.4,0.1,0.7,0.2,0.9,0.4c0,0.1,0,0.2-0.2,0.4c-0.1,0.2-0.3,0.4-0.4,0.6
	c-0.1,0.3-0.1,0.5-0.1,0.8c0,0.1,0,0.1,0,0.1c-0.1,0.1-0.2,0.2-0.3,0.3l-0.2,0.2c-0.5,0.2-0.6,0.7-0.7,1.1c0,0,0,0,0,0
	c-0.3,0.1-0.5,0.4-0.7,0.6l-0.2,0.2c-0.2,0.2-0.4,0.5-0.6,0.8c-0.1,0.1-0.1,0.2-0.1,0.3C10,19.8,10,20,10,20.1
	c-0.1,0.4-0.1,0.8-0.1,1.3c0,0,0,0,0,0c0,0-0.1-0.1-0.1-0.1c0,0,0,0,0,0c0,0,0-0.1,0-0.1c0,0,0-0.1-0.1-0.2c0,0,0-0.1,0.1-0.1
	c0-0.2,0-0.4-0.1-0.5c0-0.1,0-0.3-0.1-0.3c-0.1-0.1-0.1-0.1-0.2-0.1c0-0.1,0-0.3,0-0.5c0-0.2,0-0.5,0-0.7c0-0.1,0-0.2,0-0.3
	c0-0.2,0-0.3,0-0.5c0.1-0.9,0-1.9-1.1-2.4c-0.2-0.5-0.5-1-0.7-1.4c0,0,0.1-0.1,0.1-0.1C7.6,13.7,7.6,13.6,7.5,13.5z M11.5,22.3
	c-0.1,0-0.2,0-0.3,0c0,0,0-0.1,0-0.1c0-0.1-0.1-0.1-0.1-0.2c-0.1-0.1-0.2-0.3-0.3-0.5c-0.1-0.4-0.1-0.8,0-1.2c0,0,0,0,0,0
	c0,0,0,0,0,0c0-0.1,0.1-0.2,0.1-0.3c0.2-0.2,0.3-0.5,0.5-0.7l0.2-0.2c0,0,0-0.1,0.1-0.1c0.1-0.2,0.3-0.3,0.5-0.4
	c0.1,0,0.1-0.1,0.2-0.2c0-0.1,0.1-0.1,0.1-0.2c0,0,0-0.1,0-0.1c0.1-0.4,0.1-0.6,0.3-0.6c0.1,0,0.1-0.1,0.2-0.1l0.2-0.2
	c0.1-0.1,0.3-0.3,0.4-0.4c0,0,0,0,0,0c0-0.1,0.1-0.1,0.1-0.2c0-0.1,0-0.2,0-0.3c0-0.2,0-0.4,0-0.5c0-0.1,0.1-0.2,0.2-0.4
	c0.2-0.3,0.6-0.7,0.3-1.2c0,0-0.1-0.1-0.1-0.1c-0.4-0.3-0.8-0.5-1.3-0.6c-0.3-0.1-0.7-0.2-0.9-0.4c-0.1-0.5-0.4-1.1-1.2-1.1
	c-0.1-0.1-0.2-0.2-0.3-0.3c-0.1,0-0.1-0.1-0.1-0.1c0-0.2-0.1-0.3-0.3-0.4c-0.1,0-0.2,0-0.3,0.1c0,0-0.1,0-0.1,0c-0.1,0-0.3,0-0.4,0
	c-0.1-0.1-0.1-0.1-0.2-0.1c-0.1-0.1-0.2-0.2-0.3-0.1c-0.1,0-0.2,0-0.2,0c-0.3,0.1-0.6,0.3-0.8,0.5c-0.2,0-0.3,0-0.5,0
	c0-0.1,0-0.2,0.1-0.4l0-0.2c0-0.1,0-0.2-0.1-0.3c-0.2-0.2-0.4-0.2-0.5-0.2C6.7,10,6.8,9.8,6.9,9.6c0-0.1,0-0.2-0.1-0.3
	C6.7,9.2,6.6,9.1,6.5,9.1H6c-0.1,0-0.2,0.1-0.3,0.2c0,0.1-0.1,0.1-0.1,0.2c0,0,0,0.1,0,0.1c-0.1,0-0.1,0-0.2,0
	c-0.1-0.2-0.1-0.4,0-0.6c0.1-0.2,0.2-0.5,0.5-0.6c0,0,0.1,0,0.1,0c0.2,0,0.5,0.1,0.7-0.1c0,0,0.1,0,0.1-0.1c0.1,0,0.1,0,0.2,0
	c0,0.5,0.3,0.8,0.5,0.8c0.2,0.1,0.4,0,0.5-0.2c0.2-0.3,0.1-0.7,0-1C8,8,8.2,7.9,8.3,7.8C8.6,7.7,8.9,7.5,9,7C9.1,7,9.2,6.9,9.3,6.8
	c0.1-0.1,0.3-0.3,0.4-0.3c0.1,0,0.2-0.1,0.2-0.2C10,6,10.1,5.8,10.3,5.8c0.2-0.1,0.4-0.2,0.6-0.3c0.1,0,0.1-0.1,0.2-0.1
	c0,0,0.1-0.1,0.1-0.1c0.2,0,0.3-0.1,0.4-0.2C11.7,5,11.8,5,11.9,5c0,0,0.1-0.1,0.1-0.1c0,0,0.1-0.1,0.1-0.1c0,0,0,0,0.1-0.1
	c0.1-0.1,0.2-0.3,0.3-0.3c0.1-0.1,0.2-0.2,0.1-0.4c0-0.1-0.1-0.3-0.3-0.3c0,0,0-0.1,0-0.2c0-0.1,0-0.3-0.1-0.4
	c0.1,0,0.1-0.1,0.2-0.1c0,0,0.1-0.1,0.1-0.1c0,0,0-0.1,0-0.1c0,0,0,0,0,0c0.2-0.1,0.5-0.2,0.6-0.5C13,2.1,13,2,13,1.9
	c-0.1-0.1-0.2-0.1-0.3-0.2c0,0,0,0,0,0c0,0,0-0.1,0-0.1c0-0.1-0.1-0.2-0.2-0.3c-0.1-0.1-0.2-0.1-0.3-0.1c-0.1,0-0.1,0-0.1,0
	c0-0.2-0.2-0.3-0.4-0.3c-0.1,0-0.1,0-0.2,0l-0.3,0c-0.2,0-0.4,0-0.7,0c0,0-0.1-0.1-0.1-0.1c0.4,0,0.7-0.1,1.1-0.1c0.5,0,1,0,1.5,0.1
	c0,0,0,0,0,0c0,0.2,0.1,0.3,0.3,0.4c0.1,0,0.1,0,0.2,0c0,0.2,0,0.2-0.1,0.3c-0.1,0.1-0.1,0.2-0.1,0.3c-0.1,0.1-0.2,0.2-0.1,0.4
	c0,0.9,0.5,1.3,0.9,1.4c0,0,0.1,0,0.1,0c0.1,0,0.1,0,0.2,0c0.3-0.1,0.5-0.4,0.6-0.6c0.1-0.1,0.1-0.2,0.2-0.3
	c0.3-0.1,0.5-0.2,0.8-0.3c0.2-0.1,0.3-0.1,0.5-0.2c0,0,0,0,0.1,0c0,0.1,0,0.1,0,0.2c0,0,0,0.1,0.1,0.1C16.6,2.9,16.8,3,17,3
	c0,0,0.1,0,0.1,0c0,0,0,0,0,0l0.1,0c0.1,0,0.2,0,0.3,0c0.1,0.1,0.3,0.2,0.4,0.3C18,3.3,18,3.4,18.1,3.4c0,0,0,0,0,0c0,0,0,0.1,0,0.1
	c0,0.1,0,0.1,0,0.2c0,0-0.1,0-0.1,0c0,0-0.1,0-0.1,0c-0.1,0-0.2,0.1-0.3,0.1c-0.1,0.1-0.1,0.2-0.1,0.3c0,0,0,0,0,0c0,0,0,0,0,0
	c-0.1,0.1-0.2,0.2-0.1,0.3c0,0.1,0.1,0.2,0.2,0.3c0.1,0.1,0.2,0.1,0.3,0.1c0.1,0,0.1,0,0.2,0c0,0,0,0,0,0c0,0,0,0.1,0,0.1
	c0,0,0,0.1,0,0.1c0.1,0.2,0.2,0.3,0.3,0.3c-0.2,0-0.5-0.1-0.8,0.1c-0.2,0.1-0.2,0.3-0.1,0.5c0,0.1,0,0.1,0,0.3c0,0.2-0.1,0.4,0,0.7
	c0,0.1,0.1,0.2,0.2,0.2c-0.2,0.1-0.4,0.3-0.4,0.7c-0.5,0.3-0.7,0.8-0.9,1.2c-0.1,0.1-0.1,0.2-0.2,0.3c-0.1,0.2-0.1,0.3,0.1,0.5
	c0.1,0.1,0.1,0.1,0,0.4c-0.1,0.2-0.1,0.5,0,0.9c0,0.1,0,0.1,0.1,0.2c0.2,0.1,0.3,0.3,0.4,0.5c0.3,0.3,0.5,0.7,0.9,0.9
	c0.1,0,0.2,0.1,0.3,0c0.3-0.1,0.5-0.1,0.7-0.1l0.2,0c0,0,0.1,0,0.1-0.1c0.2-0.1,0.4-0.2,0.7-0.1c0,0,0,0,0,0c0,0,0,0,0,0
	c0.1,0,0.3,0.1,0.4,0.2c0,0,0,0,0,0c0,0,0,0,0,0l0,0.1c0,0,0,0,0,0c0,0,0,0,0,0c0.1,0.2,0.1,0.3,0.1,0.5c0,0,0,0,0,0.1h0
	c0,0.2,0.1,0.4,0.2,0.6c0,0.1,0.1,0.2,0.1,0.3c0,0.1,0.1,0.3,0.1,0.4c0,0.1,0,0.2,0,0.3c0,0,0,0.1,0,0.1c0,0.1,0,0.2,0,0.4
	c0,0.1-0.1,0.2-0.2,0.3c0,0-0.1,0.1-0.1,0.2c0,0,0,0.1,0,0.1c0,0.1,0,0.2,0.1,0.2c0.1,0.1,0.1,0.2,0.2,0.3c0,0.1,0.1,0.1,0.1,0.2
	C18.9,20.1,15.5,22.3,11.5,22.3z"/>
</svg>
