<?xml version="1.0" encoding="utf-8"?>
<!-- Generator: Adobe Illustrator 18.1.1, SVG Export Plug-In . SVG Version: 6.00 Build 0)  -->
<svg version="1.1" id="Layer_1" xmlns="http://www.w3.org/2000/svg" xmlns:xlink="http://www.w3.org/1999/xlink" x="0px" y="0px"
	 width="30px" height="20.3px" viewBox="0 0 30 20.3" enable-background="new 0 0 30 20.3" xml:space="preserve">
<path fill="#FFFFFF" d="M29.7,9.4l-8.3-9.2C21.2,0.1,21,0,20.7,0c-0.3,0-0.5,0.1-0.7,0.3l-6.8,7.5V1.5c0-0.5-0.4-0.9-0.9-0.9H6.2
	C5.7,0.6,5.3,1,5.3,1.5v7.8H0.9c-0.4,0-0.7,0.2-0.8,0.5c-0.1,0.3-0.1,0.7,0.2,1L8.6,20c0.2,0.2,0.4,0.3,0.7,0.3
	c0.3,0,0.5-0.1,0.7-0.3l6.8-7.5v6.3c0,0.5,0.4,0.9,0.9,0.9h6.2c0.5,0,0.9-0.4,0.9-0.9v-7.8h4.4c0,0,0,0,0,0c0.5,0,0.9-0.4,0.9-0.9
	C30,9.9,29.9,9.6,29.7,9.4z M9.3,18.1l-6.3-7h3.3c0.5,0,0.9-0.4,0.9-0.9V2.4h4.3v7.8c0,0,0,0,0,0c0,0.1,0,0.2,0.1,0.3c0,0,0,0,0,0
	c0,0,0,0,0,0c0,0.1,0.1,0.2,0.2,0.3c0,0,0,0,0.1,0.1c0.1,0.1,0.1,0.1,0.2,0.1c0,0,0.1,0,0.1,0c0.1,0,0.2,0.1,0.3,0.1h3.2L9.3,18.1z
	 M23.8,9.3c-0.5,0-0.9,0.4-0.9,0.9v7.8h-4.3v-7.8c0,0,0,0,0,0c0-0.1,0-0.2-0.1-0.3c0,0,0,0,0,0c0,0,0,0,0,0c0-0.1-0.1-0.2-0.2-0.3
	c0,0,0,0-0.1-0.1c-0.1-0.1-0.1-0.1-0.2-0.1c0,0-0.1,0-0.1,0c-0.1,0-0.2-0.1-0.3-0.1h-3.2l6.3-7l6.3,7H23.8z"/>
</svg>
