<?xml version="1.0" encoding="utf-8"?>
<!-- Generator: Adobe Illustrator 18.1.1, SVG Export Plug-In . SVG Version: 6.00 Build 0)  -->
<svg version="1.1" id="Layer_1" xmlns="http://www.w3.org/2000/svg" xmlns:xlink="http://www.w3.org/1999/xlink" x="0px" y="0px"
	 width="24.6px" height="17.8px" viewBox="0 0 24.6 17.8" enable-background="new 0 0 24.6 17.8" xml:space="preserve">
<g>
	<g>
		<path fill="#FFFFFF" d="M22.1,17.8H2.5c-1.4,0-2.5-1.1-2.5-2.5V2.5C0,1.1,1.1,0,2.5,0h19.5c1.4,0,2.5,1.1,2.5,2.5v12.8
			C24.6,16.7,23.5,17.8,22.1,17.8L22.1,17.8z M2.5,2.2c-0.2,0-0.4,0.2-0.4,0.4v12.8c0,0.2,0.2,0.4,0.4,0.4h19.5
			c0.2,0,0.4-0.2,0.4-0.4V2.5c0-0.2-0.2-0.4-0.4-0.4H2.5L2.5,2.2z"/>
	</g>
	<g>
		<path fill="#FFFFFF" d="M22.1,17.3H2.5c-0.8,0-1.6-0.5-1.9-1.3c-0.1-0.2,0-0.4,0.1-0.6l7.6-6.8c0.2-0.2,0.6-0.2,0.8,0
			c0.2,0.2,0.2,0.6,0,0.8l-7.3,6.5c0.2,0.2,0.4,0.3,0.7,0.3h19.5c0.3,0,0.5-0.1,0.7-0.3l-7.4-6.6c-0.2-0.2-0.2-0.5,0-0.8
			c0.2-0.2,0.5-0.2,0.8,0l7.7,6.9c0.2,0.1,0.2,0.4,0.1,0.6C23.6,16.8,22.9,17.3,22.1,17.3L22.1,17.3z"/>
	</g>
	<g>
		<path fill="#FFFFFF" d="M12.3,12.5c-0.1,0-0.3,0-0.4-0.1L0.8,2.4C0.6,2.3,0.6,2,0.7,1.8c0.3-0.8,1-1.3,1.9-1.3h19.5
			c0.8,0,1.6,0.5,1.9,1.3c0.1,0.2,0,0.4-0.1,0.6l-11.1,9.9C12.6,12.4,12.4,12.5,12.3,12.5L12.3,12.5z M1.9,1.9l10.4,9.3l10.4-9.3
			c-0.2-0.2-0.4-0.3-0.7-0.3H2.5C2.3,1.6,2,1.7,1.9,1.9L1.9,1.9z"/>
	</g>
</g>
</svg>
