<?xml version="1.0" encoding="utf-8"?>
<!-- Generator: Adobe Illustrator 18.1.1, SVG Export Plug-In . SVG Version: 6.00 Build 0)  -->
<svg version="1.1" id="Layer_1" xmlns="http://www.w3.org/2000/svg" xmlns:xlink="http://www.w3.org/1999/xlink" x="0px" y="0px"
	 width="23.7px" height="22.4px" viewBox="0 0 23.7 22.4" enable-background="new 0 0 23.7 22.4" xml:space="preserve">
<g>
	<g>
		<g>
			<path fill="#FFFFFF" d="M9.5,18.9c-0.2,0-0.5-0.1-0.6-0.3c-0.2-0.2-0.3-0.4-0.3-0.7l0.2-3.3c0-0.2,0.1-0.4,0.3-0.6L19,4.1
				c0.3-0.3,1-0.3,1.3,0l3.1,3.1c0.4,0.4,0.4,0.9,0,1.3l-9.9,9.9c-0.2,0.2-0.4,0.3-0.6,0.3L9.5,18.9C9.6,18.9,9.5,18.9,9.5,18.9
				L9.5,18.9z M10.6,15.1l-0.1,2l2-0.1l9-9L19.6,6L10.6,15.1L10.6,15.1z"/>
		</g>
		<g>
			<path fill="#FFFFFF" d="M21,9.8c-0.1,0-0.2,0-0.3-0.1l-2.8-2.8c-0.2-0.2-0.2-0.5,0-0.6C18,6,18.3,6,18.5,6.2L21.3,9
				c0.2,0.2,0.2,0.5,0,0.6C21.2,9.7,21.1,9.8,21,9.8L21,9.8z"/>
		</g>
		<path fill="#FFFFFF" d="M10,15.7c-0.1,0-0.1,0-0.2,0c-0.1,0-0.1,0-0.2,0L9.5,18l2.2-0.1c0-0.1,0-0.2,0.1-0.3
			C11.9,16.5,11.1,15.7,10,15.7L10,15.7z"/>
	</g>
	<g>
		<g>
			<path fill="#FFFFFF" d="M14.8,22.4H2.1c-1.1,0-2.1-0.9-2.1-2.1V3.2c0-0.5,0.4-0.9,0.9-0.9c0.5,0,0.9,0.4,0.9,0.9v17.1
				c0,0.1,0.1,0.3,0.3,0.3h12.7c0.1,0,0.3-0.1,0.3-0.3V15c0-0.5,0.4-0.9,0.9-0.9c0.5,0,0.9,0.4,0.9,0.9v5.4
				C16.9,21.5,16,22.4,14.8,22.4L14.8,22.4z"/>
		</g>
		<g>
			<path fill="#FFFFFF" d="M16,9.2c-0.5,0-0.9-0.4-0.9-0.9V5.9c0-0.1-0.1-0.3-0.3-0.3c-0.5,0-0.9-0.4-0.9-0.9c0-0.5,0.4-0.9,0.9-0.9
				c1.1,0,2.1,0.9,2.1,2.1v2.4C16.9,8.8,16.5,9.2,16,9.2L16,9.2z"/>
		</g>
		<g>
			<path fill="#FFFFFF" d="M14.6,5.7H2.8C1.3,5.7,0,4.4,0,2.8C0,1.3,1.3,0,2.8,0H16c0.5,0,0.9,0.4,0.9,0.9S16.5,1.8,16,1.8H2.8
				c-0.5,0-1,0.4-1,1s0.4,1,1,1h11.8c0.5,0,0.9,0.4,0.9,0.9C15.6,5.2,15.2,5.7,14.6,5.7L14.6,5.7z"/>
		</g>
	</g>
	<g>
		<path fill="#FFFFFF" d="M9.8,9H4.2C4,9,3.8,8.8,3.8,8.6c0-0.3,0.2-0.5,0.5-0.5h5.6c0.3,0,0.5,0.2,0.5,0.5C10.3,8.8,10.1,9,9.8,9
			L9.8,9z"/>
	</g>
	<g>
		<path fill="#FFFFFF" d="M9.8,11.5H4.2c-0.3,0-0.5-0.2-0.5-0.5c0-0.3,0.2-0.5,0.5-0.5h5.6c0.3,0,0.5,0.2,0.5,0.5
			C10.3,11.3,10.1,11.5,9.8,11.5L9.8,11.5z"/>
	</g>
</g>
</svg>
