<?xml version="1.0" encoding="utf-8"?>
<!-- Generator: Adobe Illustrator 18.1.1, SVG Export Plug-In . SVG Version: 6.00 Build 0)  -->
<svg version="1.1" id="Layer_1" xmlns="http://www.w3.org/2000/svg" xmlns:xlink="http://www.w3.org/1999/xlink" x="0px" y="0px"
	 width="23.9px" height="24.2px" viewBox="0 0 23.9 24.2" enable-background="new 0 0 23.9 24.2" xml:space="preserve">
<g>
	<path fill="#FFFFFF" d="M23.2,12.3L19,8.1c0.3-0.7,0.4-1.4,0.4-2.2c0-3.3-2.7-5.9-5.9-5.9C11.6,0,10,0.9,8.9,2.3
		C7.9,1.8,6.7,1.6,5.3,1.6C2.3,1.6,0,2.8,0,4.4v15.1c0,1.6,2.3,2.8,5.3,2.8c0.1,0,0.2,0,0.3,0c0.6,1.2,2.7,2,5.1,2
		c3,0,5.3-1.2,5.3-2.8v-5.2c0-1.6-2.3-2.8-5.3-2.8c0,0,0,0-0.1,0v-2.2c0.8,0.5,1.8,0.7,2.8,0.7c0.8,0,1.6-0.2,2.3-0.5l4.2,4.2
		c0.4,0.4,1,0.7,1.6,0.7c0.6,0,1.2-0.2,1.6-0.7c0.4-0.4,0.7-1,0.7-1.6C23.9,13.3,23.7,12.8,23.2,12.3z M5.3,2.3
		c1.3,0,2.3,0.2,3.1,0.6c-0.6,0.9-0.9,2-0.9,3.1c0,0.1,0,0.1,0,0.2C6.9,6.3,6.2,6.4,5.3,6.4c-2.8,0-4.6-1.1-4.6-2.1
		C0.7,3.3,2.6,2.3,5.3,2.3z M0.7,5.7C0.7,5.8,0.7,5.8,0.7,5.7C0.8,5.9,0.9,5.9,1,6c0,0,0.1,0.1,0.1,0.1c0.1,0.1,0.2,0.1,0.4,0.2
		c0,0,0,0,0.1,0C1.7,6.4,1.8,6.5,2,6.5c0,0,0.1,0,0.1,0.1c0.1,0,0.3,0.1,0.4,0.1c0.1,0,0.1,0,0.2,0c0.2,0,0.3,0.1,0.5,0.1
		c0,0,0,0,0,0C3.4,7,3.6,7,3.8,7C3.9,7,4,7,4,7c0.2,0,0.3,0,0.5,0.1c0.1,0,0.1,0,0.2,0c0.2,0,0.4,0,0.7,0c0.2,0,0.4,0,0.7,0
		c0.1,0,0.1,0,0.2,0c0.2,0,0.3,0,0.5-0.1c0.1,0,0.1,0,0.2,0C7.1,7,7.3,7,7.5,6.9c0,0,0,0,0,0c0.1,0,0.1,0,0.2,0
		C7.8,7.5,8,8.2,8.3,8.7C7.5,9,6.5,9.2,5.3,9.2c-2.8,0-4.6-1.1-4.6-2.1V5.7z M0.7,8.5c0.9,0.8,2.6,1.4,4.6,1.4
		c1.3,0,2.4-0.2,3.3-0.6c0.3,0.4,0.6,0.7,0.9,1c-0.7,0.7-2.2,1.3-4.2,1.3c-2.8,0-4.6-1.1-4.6-2.1V8.5z M0.7,11
		c0.9,0.8,2.6,1.4,4.6,1.4c2,0,3.7-0.6,4.7-1.4v1c0,1-1.9,2.1-4.7,2.1c-2.8,0-4.6-1.1-4.6-2.1V11z M0.7,13.4
		c0.9,0.8,2.6,1.4,4.6,1.4c0.3,0,0.5,0,0.8,0c-0.5,0.4-0.7,0.9-0.7,1.4v0.3c0,0,0,0-0.1,0c-2.8,0-4.6-1.1-4.6-2.1V13.4z M6.4,17.8
		c0,0,0.1,0.1,0.1,0.1c0.1,0.1,0.2,0.1,0.4,0.2c0,0,0,0,0.1,0c0.1,0.1,0.3,0.1,0.5,0.2c0,0,0.1,0,0.1,0.1c0.1,0,0.3,0.1,0.4,0.1
		c0.1,0,0.1,0,0.2,0c0.2,0,0.3,0.1,0.5,0.1c0,0,0,0,0,0c0.2,0,0.4,0.1,0.6,0.1c0.1,0,0.1,0,0.2,0c0.2,0,0.3,0,0.5,0.1
		c0.1,0,0.1,0,0.2,0c0.2,0,0.4,0,0.7,0c0.2,0,0.4,0,0.7,0c0.1,0,0.1,0,0.2,0c0.2,0,0.3,0,0.5-0.1c0.1,0,0.1,0,0.2,0
		c0.2,0,0.4-0.1,0.6-0.1c0,0,0,0,0,0c0.2,0,0.4-0.1,0.5-0.1c0.1,0,0.1,0,0.2,0c0.1,0,0.3-0.1,0.4-0.1c0,0,0.1,0,0.1-0.1
		c0.2-0.1,0.3-0.1,0.5-0.2c0,0,0,0,0.1,0c0.1-0.1,0.2-0.1,0.4-0.2c0,0,0.1-0.1,0.1-0.1c0.1-0.1,0.2-0.1,0.3-0.2c0,0,0,0,0.1-0.1V19
		c0,1-1.9,2.1-4.6,2.1C8,21.1,6.1,20,6.1,19v-1.4c0,0,0,0,0.1,0C6.2,17.7,6.3,17.8,6.4,17.8z M0.7,15.8c0.9,0.8,2.6,1.4,4.6,1.4
		c0,0,0,0,0.1,0V19c0,0,0,0-0.1,0c-2.8,0-4.6-1.1-4.6-2.1V15.8z M5.3,21.5c-2.8,0-4.6-1.1-4.6-2.1v-1.2c0.9,0.8,2.6,1.4,4.6,1.4
		c0,0,0,0,0.1,0v1.8C5.4,21.5,5.4,21.5,5.3,21.5C5.4,21.5,5.4,21.5,5.3,21.5z M10.7,23.5c-2.8,0-4.6-1.1-4.6-2.1v-1
		c0.9,0.8,2.6,1.4,4.6,1.4c2,0,3.7-0.6,4.6-1.4v1C15.4,22.4,13.5,23.5,10.7,23.5z M15.4,16.2c0,1-1.9,2.1-4.6,2.1
		c-2.8,0-4.6-1.1-4.6-2.1c0-1,1.9-2.1,4.6-2.1C13.5,14.1,15.4,15.2,15.4,16.2z M9.9,13.4C10,13.4,10,13.4,9.9,13.4L9.9,13.4
		C10,13.4,10,13.4,9.9,13.4z M13.5,10.5C11,10.5,9,8.5,9,5.9s2-4.5,4.5-4.5c2.5,0,4.6,2,4.6,4.5S16,10.5,13.5,10.5z M22.2,14.6
		c-0.3,0.3-0.9,0.3-1.3,0l-3.8-3.8l1.3-1.3l3.8,3.8c0.2,0.2,0.3,0.4,0.3,0.6C22.5,14.2,22.4,14.4,22.2,14.6z"/>
	<path fill="#FFFFFF" d="M13.5,2.3c-0.2,0-0.3,0.2-0.3,0.3c0,0.2,0.2,0.3,0.3,0.3c1.6,0,2.9,1.3,2.9,2.9c0,0.2,0.2,0.3,0.3,0.3
		s0.3-0.2,0.3-0.3C17.1,3.9,15.5,2.3,13.5,2.3z"/>
</g>
</svg>
