<?xml version="1.0" encoding="utf-8"?>
<!-- Generator: Adobe Illustrator 18.1.1, SVG Export Plug-In . SVG Version: 6.00 Build 0)  -->
<svg version="1.1" id="Layer_1" xmlns="http://www.w3.org/2000/svg" xmlns:xlink="http://www.w3.org/1999/xlink" x="0px" y="0px"
	 width="24.3px" height="21.6px" viewBox="0 0 24.3 21.6" enable-background="new 0 0 24.3 21.6" xml:space="preserve">
<g>
	<g>
		<g>
			<path fill="#FFFFFF" d="M10.9,21.1c-0.3,0-0.5-0.2-0.5-0.5v-5.8c0-0.3,0.2-0.5,0.5-0.5h5.8c0.3,0,0.5,0.2,0.5,0.5
				c0,0.3-0.2,0.5-0.5,0.5h-5.3v5.3C11.3,20.9,11.1,21.1,10.9,21.1L10.9,21.1z"/>
		</g>
		<g>
			<path fill="#FFFFFF" d="M10.9,21.6H1c-0.5,0-1-0.4-1-1V1c0-0.5,0.4-1,1-1h15.7c0.5,0,1,0.4,1,1v3.9c0,0.5-0.4,1-1,1
				c-0.5,0-1-0.4-1-1V1.9H1.9v17.8h8.6l5.2-5.2v-4.1c0-0.5,0.4-1,1-1c0.5,0,1,0.4,1,1v4.5c0,0.3-0.1,0.5-0.3,0.7l-5.8,5.8
				C11.4,21.5,11.1,21.6,10.9,21.6L10.9,21.6z"/>
		</g>
	</g>
	<g>
		<g>
			<path fill="#FFFFFF" d="M19.3,12.5c-0.2,0-0.5-0.1-0.7-0.3c-0.4-0.4-0.4-1,0-1.4L22,7.6l-3.3-3.3c-0.4-0.4-0.4-1,0-1.4
				c0.4-0.4,1-0.4,1.4,0l4,4c0.4,0.4,0.4,1,0,1.4l-4,4C19.8,12.5,19.6,12.5,19.3,12.5L19.3,12.5z"/>
		</g>
		<g>
			<path fill="#FFFFFF" d="M10.9,8.5c-0.5,0-1-0.4-1-1c0-0.5,0.4-1,1-1l11.4,0c0.5,0,1,0.4,1,1c0,0.5-0.4,1-1,1L10.9,8.5L10.9,8.5z"
				/>
		</g>
	</g>
</g>
</svg>
