<?xml version="1.0" encoding="utf-8"?>
<!-- Generator: Adobe Illustrator 18.1.1, SVG Export Plug-In . SVG Version: 6.00 Build 0)  -->
<svg version="1.1" id="Layer_1" xmlns="http://www.w3.org/2000/svg" xmlns:xlink="http://www.w3.org/1999/xlink" x="0px" y="0px"
	 width="23.4px" height="21px" viewBox="0 0 23.4 21" enable-background="new 0 0 23.4 21" xml:space="preserve">
<g>
	<path fill="#FFFFFF" d="M17.3,21H3.8C1.7,21,0,19.3,0,17.1V16c0-2.1,1.7-3.8,3.8-3.8h13.5c0.5,0,1,0.4,1,1c0,0.5-0.4,1-1,1H3.8
		c-1.1,0-1.9,0.9-1.9,1.9v1.1c0,1.1,0.9,1.9,1.9,1.9h13.5c0.5,0,1,0.4,1,1C18.3,20.5,17.9,21,17.3,21"/>
	<path fill="#FFFFFF" d="M6.1,3.5c-0.1,0-0.3,0-0.4-0.1C5.2,3.2,5,2.6,5.3,2.1C5.9,0.8,7.2,0,8.7,0h13.7c0.5,0,1,0.4,1,1
		c0,0.5-0.4,1-1,1H8.7C8,1.9,7.3,2.3,7,3C6.8,3.3,6.5,3.5,6.1,3.5"/>
	<path fill="#FFFFFF" d="M1.3,15.6c-0.1,0-0.2,0-0.4-0.1c-0.5-0.2-0.7-0.8-0.5-1.2L5.3,2.1C5.5,1.6,6,1.4,6.5,1.6
		C7,1.8,7.3,2.4,7.1,2.8L2.2,15C2,15.4,1.7,15.6,1.3,15.6"/>
	<path fill="#FFFFFF" d="M17.6,21c-0.1,0-0.2,0-0.4-0.1c-0.5-0.2-0.7-0.8-0.5-1.2l4.9-12.2C21.8,7,22.3,6.8,22.8,7
		c0.5,0.2,0.7,0.8,0.5,1.2l-4.9,12.2C18.3,20.8,17.9,21,17.6,21"/>
	<path fill="#FFFFFF" d="M17.3,14.1c-0.1,0-0.2,0-0.4-0.1c-0.5-0.2-0.7-0.8-0.5-1.2l5.1-12.2c0.2-0.5,0.8-0.7,1.2-0.5
		c0.5,0.2,0.7,0.8,0.5,1.2l-5.1,12.2C18.1,13.9,17.7,14.1,17.3,14.1"/>
	<path fill="#FFFFFF" d="M16.7,16.2h-13c-0.3,0-0.5-0.2-0.5-0.5c0-0.3,0.2-0.5,0.5-0.5h13c0.3,0,0.5,0.2,0.5,0.5
		C17.1,16,16.9,16.2,16.7,16.2"/>
	<path fill="#FFFFFF" d="M16.7,17.9h-13c-0.3,0-0.5-0.2-0.5-0.5c0-0.3,0.2-0.5,0.5-0.5h13c0.3,0,0.5,0.2,0.5,0.5
		C17.1,17.7,16.9,17.9,16.7,17.9"/>
</g>
</svg>
