<?xml version="1.0" encoding="utf-8"?>
<!-- Generator: Adobe Illustrator 18.1.1, SVG Export Plug-In . SVG Version: 6.00 Build 0)  -->
<svg version="1.1" id="Layer_1" xmlns="http://www.w3.org/2000/svg" xmlns:xlink="http://www.w3.org/1999/xlink" x="0px" y="0px"
	 width="18.6px" height="18.8px" viewBox="-1881.8 1902.3 18.6 18.8" enable-background="new -1881.8 1902.3 18.6 18.8"
	 xml:space="preserve">
<path fill="#231F20" d="M-1880.5,1902.3h16.1c0.2,0,0.5,0.1,0.8,0.4s0.4,0.6,0.4,0.8v16.4c0,0.3-0.2,0.6-0.5,0.9
	c-0.3,0.2-0.6,0.3-0.8,0.3h-16c-0.3,0-0.7-0.1-1-0.4c-0.2-0.3-0.3-0.5-0.3-0.8v-16.4c0-0.5,0.3-0.9,0.9-1.2H-1880.5z
	 M-1879.2,1906.9L-1879.2,1906.9c0,0.3,0.1,0.6,0.2,0.8c0.2,0.3,0.5,0.6,0.9,0.7l0.2,0.1h0.5c0.2,0,0.5-0.1,0.9-0.4
	c0.3-0.3,0.4-0.6,0.4-0.9v-0.5c0-0.2-0.1-0.5-0.4-0.8c-0.3-0.2-0.5-0.4-0.8-0.4l-0.3-0.1h-0.4c-0.3,0-0.6,0.1-0.9,0.3
	C-1879,1906.1-1879.2,1906.5-1879.2,1906.9z M-1879,1909.6v8.3c0,0.1,0,0.1,0.1,0.1h2.7l0.1-0.1v-8.2c0-0.1,0-0.2-0.1-0.2
	L-1879,1909.6L-1879,1909.6z M-1871.7,1910.5v-0.9l-0.1-0.1h-2.6c-0.1,0-0.1,0-0.1,0.1v0.7v3.4v4.4h0.1h2.8l0.1-0.1v-4.7
	c0-0.6,0.2-1,0.5-1.2c0.3-0.3,0.6-0.4,1-0.4h0.1c0.6,0,1,0.3,1.2,1c0.1,0.2,0.1,0.6,0.1,1.1v4.2v0.1c0,0.1,0.1,0.1,0.2,0.1h2.4
	l0.1-0.1v-4.9c0-1.9-0.7-3.1-2-3.6c-0.3-0.1-0.7-0.2-1.3-0.2c-0.6,0.1-1.1,0.2-1.4,0.3C-1871,1909.8-1871.4,1910.1-1871.7,1910.5
	L-1871.7,1910.5z"/>
</svg>
