<?xml version="1.0" encoding="utf-8"?>
<!-- Generator: Adobe Illustrator 18.1.1, SVG Export Plug-In . SVG Version: 6.00 Build 0)  -->
<svg version="1.1" id="Layer_1" xmlns="http://www.w3.org/2000/svg" xmlns:xlink="http://www.w3.org/1999/xlink" x="0px" y="0px"
	 width="18.6px" height="18.8px" viewBox="-931.8 951.1 18.6 18.8" enable-background="new -931.8 951.1 18.6 18.8"
	 xml:space="preserve">
<path fill="#FFFFFF" d="M-930.5,951.1h16.1c0.2,0,0.5,0.1,0.8,0.4c0.3,0.3,0.4,0.6,0.4,0.8v16.4c0,0.3-0.2,0.6-0.5,0.9
	c-0.3,0.2-0.6,0.3-0.8,0.3h-16c-0.3,0-0.7-0.1-1-0.4c-0.2-0.3-0.3-0.5-0.3-0.8v-16.4c0-0.5,0.3-0.9,0.9-1.2H-930.5z M-929.2,955.7
	L-929.2,955.7c0,0.3,0.1,0.6,0.2,0.8c0.2,0.3,0.5,0.6,0.9,0.7l0.2,0.1h0.5c0.2,0,0.5-0.1,0.9-0.4c0.3-0.3,0.4-0.6,0.4-0.9v-0.5
	c0-0.2-0.1-0.5-0.4-0.8c-0.3-0.2-0.5-0.4-0.8-0.4l-0.3-0.1h-0.4c-0.3,0-0.6,0.1-0.9,0.3C-929,954.9-929.2,955.3-929.2,955.7z
	 M-929,958.4v8.3c0,0.1,0,0.1,0.1,0.1h2.7l0.1-0.1v-8.2c0-0.1,0-0.2-0.1-0.2L-929,958.4L-929,958.4z M-921.7,959.3v-0.9l-0.1-0.1
	h-2.6c-0.1,0-0.1,0-0.1,0.1v0.7v3.4v4.4h0.1h2.8l0.1-0.1v-4.7c0-0.6,0.2-1,0.5-1.2c0.3-0.3,0.6-0.4,1-0.4h0.1c0.6,0,1,0.3,1.2,1
	c0.1,0.2,0.1,0.6,0.1,1.1v4.2v0.1c0,0.1,0.1,0.1,0.2,0.1h2.4l0.1-0.1V962c0-1.9-0.7-3.1-2-3.6c-0.3-0.1-0.7-0.2-1.3-0.2
	c-0.6,0.1-1.1,0.2-1.4,0.3C-921,958.6-921.4,958.9-921.7,959.3L-921.7,959.3z"/>
</svg>
