<?xml version="1.0" encoding="utf-8"?>
<!-- Generator: Adobe Illustrator 18.1.1, SVG Export Plug-In . SVG Version: 6.00 Build 0)  -->
<svg version="1.1" id="Layer_1" xmlns="http://www.w3.org/2000/svg" xmlns:xlink="http://www.w3.org/1999/xlink" x="0px" y="0px"
	 width="464.7px" height="97.3px" viewBox="-735 912 464.7 97.3" enable-background="new -735 912 464.7 97.3" xml:space="preserve"
	>
<g>
	<path fill="#27A8E0" d="M-693.4,1000.9c0.1,0,0.2,0,0.4,0l42.1,5.1l-10.9-14c8.6-6.7,14.6-16.8,16.1-28.5
		c2.8-23.3-13.9-44.6-37.3-47.5c-23.5-2.8-44.8,13.8-47.6,37.3C-733.5,976.7-716.8,998-693.4,1000.9 M-716.2,955
		c1.9-15.5,16-26.5,31.5-24.6c15.5,1.9,26.5,16,24.6,31.5c-1.9,15.5-16,26.5-31.5,24.6C-707.1,984.6-718.1,970.5-716.2,955"/>
	<path fill="#27A8E0" d="M-686.5,944.3c7.8,1,13.4,8,12.4,15.8c-0.9,7.8-8,13.3-15.8,12.4c-7.8-1-13.3-8-12.4-15.8
		C-701.4,948.9-694.3,943.4-686.5,944.3"/>
	<g>
		<g>
			<g opacity="0.2">
				<defs>
					<rect id="SVGID_1_" x="-731" y="915.7" opacity="0.2" width="69.8" height="60.4"/>
				</defs>
				<clipPath id="SVGID_2_">
					<use xlink:href="#SVGID_1_"  overflow="visible"/>
				</clipPath>
				<g clip-path="url(#SVGID_2_)">
					<g>
						<defs>
							<rect id="SVGID_3_" x="-731" y="915.7" width="69.8" height="60.4"/>
						</defs>
						<defs>
							<rect id="SVGID_4_" x="-731" y="915.7" width="69.8" height="60.4"/>
						</defs>
						<clipPath id="SVGID_5_">
							<use xlink:href="#SVGID_3_"  overflow="visible"/>
						</clipPath>
						<clipPath id="SVGID_6_" clip-path="url(#SVGID_5_)">
							<use xlink:href="#SVGID_4_"  overflow="visible"/>
						</clipPath>
						<path clip-path="url(#SVGID_6_)" fill="#FFFFFF" d="M-686.5,944.4c3.6,0.4,6.7,2.2,8.9,4.7c-3.1,3.1-6.4,6.2-10.1,9.1
							c-4,3.2-8.2,5.9-12.3,8.3c-1.8-2.7-2.7-6.1-2.3-9.6C-701.4,949-694.3,943.4-686.5,944.4"/>
						<path clip-path="url(#SVGID_6_)" fill="#FFFFFF" d="M-683.1,916.1c8.3,1,15.8,4.4,21.9,9.4c-1.9,4.3-4.4,8.6-7.4,12.8
							c-4.3-4.2-9.9-7-16.2-7.8c-15.5-1.9-29.6,9.1-31.5,24.6c-0.8,6.2,0.6,12.2,3.5,17.3c-4.9,1.8-9.7,3.1-14.3,3.8
							c-3.2-6.9-4.6-14.8-3.6-22.9C-727.8,929.9-706.5,913.2-683.1,916.1"/>
					</g>
				</g>
			</g>
			<path fill="#929497" d="M-396.3,944.8l-5.2,36.8h-14.6l-5.6-36.8h10l3.2,26.9c0.2-2,0.7-6.8,1.3-14.4c0.3-4.3,0.7-8.4,1.1-12.4
				L-396.3,944.8L-396.3,944.8z"/>
			<path fill="#929497" d="M-369.3,963.8h-14.5v8c0,1.7,0.1,2.7,0.4,3.2c0.2,0.5,0.7,0.7,1.4,0.7c0.9,0,1.4-0.3,1.7-1
				c0.3-0.6,0.4-1.9,0.4-3.7v-4.9h10.6v2.7c0,2.3-0.1,4-0.4,5.2s-1,2.5-2,3.9c-1.1,1.4-2.4,2.4-4,3.1s-3.6,1-6.1,1
				c-2.4,0-4.5-0.3-6.3-1s-3.2-1.6-4.2-2.8s-1.7-2.5-2.1-3.9s-0.6-3.5-0.6-6.3v-10.5c0-3.2,0.4-5.8,1.3-7.6c0.9-1.9,2.3-3.3,4.3-4.3
				s4.2-1.5,6.8-1.5c3.1,0,5.7,0.6,7.8,1.8c2,1.2,3.5,2.8,4.3,4.7c0.8,2,1.2,4.7,1.2,8.3L-369.3,963.8L-369.3,963.8z M-380.5,957.8
				v-2.7c0-1.9-0.1-3.1-0.3-3.7c-0.2-0.6-0.6-0.8-1.2-0.8c-0.8,0-1.3,0.2-1.4,0.7c-0.2,0.5-0.3,1.7-0.3,3.8v2.7H-380.5z"/>
			<path fill="#929497" d="M-342.8,956.5h-9.9v-2c0-1.7-0.1-2.8-0.3-3.2c-0.2-0.5-0.7-0.7-1.5-0.7c-0.6,0-1.1,0.2-1.4,0.6
				c-0.3,0.4-0.5,1-0.5,1.9c0,1.1,0.1,2,0.2,2.5c0.2,0.5,0.6,1.1,1.4,1.7s2.4,1.5,4.8,2.7c3.2,1.6,5.4,3.1,6.4,4.5
				c1,1.4,1.5,3.5,1.5,6.1c0,3-0.4,5.3-1.2,6.8c-0.8,1.5-2.1,2.7-3.9,3.5c-1.8,0.8-4,1.2-6.6,1.2c-2.9,0-5.3-0.4-7.3-1.3
				s-3.4-2.1-4.2-3.6c-0.8-1.5-1.1-3.8-1.1-6.9v-1.8h9.9v2.3c0,2,0.1,3.3,0.4,3.9c0.3,0.6,0.7,0.9,1.5,0.9s1.4-0.2,1.7-0.6
				c0.3-0.4,0.5-1.2,0.5-2.5c0-1.8-0.2-2.9-0.6-3.3c-0.4-0.4-2.6-1.8-6.5-3.9c-3.3-1.8-5.3-3.5-6-5s-1.1-3.3-1.1-5.4
				c0-2.9,0.4-5.1,1.2-6.5c0.8-1.4,2.1-2.5,4-3.2c1.9-0.8,4-1.1,6.5-1.1c2.4,0,4.5,0.3,6.2,0.9c1.7,0.6,3,1.4,3.9,2.5
				c0.9,1,1.5,2,1.7,2.8c0.2,0.9,0.3,2.2,0.3,4.1V956.5z"/>
			<path fill="#929497" d="M-327.1,939.9v5.8h3v5.8h-3v19.7c0,2.4,0.1,3.8,0.4,4c0.2,0.3,1.3,0.4,3.1,0.4v5.9h-4.5
				c-2.6,0-4.4-0.1-5.5-0.3s-2.1-0.7-2.9-1.5c-0.8-0.8-1.3-1.6-1.6-2.6c-0.2-1-0.3-3.3-0.3-7v-18.6h-2.4v-5.8h2.4v-5.8H-327.1z"/>
			<path fill="#929497" d="M-296.3,957.7v9c0,3.3-0.2,5.7-0.5,7.3c-0.3,1.5-1,3-2.1,4.3s-2.5,2.3-4.2,3c-1.7,0.6-3.7,1-5.9,1
				c-2.5,0-4.6-0.3-6.3-0.8c-1.7-0.5-3.1-1.4-4-2.5c-1-1.1-1.6-2.4-2-4c-0.4-1.6-0.6-3.9-0.6-7v-9.4c0-3.4,0.4-6.1,1.1-8
				c0.7-1.9,2.1-3.5,4-4.6c1.9-1.2,4.4-1.7,7.4-1.7c2.5,0,4.7,0.4,6.5,1.1c1.8,0.8,3.2,1.7,4.2,2.9s1.7,2.4,2,3.7
				C-296.4,953.1-296.3,955.1-296.3,957.7 M-307.5,954.9c0-1.9-0.1-3.1-0.3-3.6c-0.2-0.5-0.6-0.7-1.3-0.7c-0.7,0-1.1,0.2-1.3,0.7
				c-0.2,0.5-0.3,1.7-0.3,3.6v16.6c0,1.7,0.1,2.9,0.3,3.4c0.2,0.5,0.7,0.8,1.3,0.8c0.7,0,1.1-0.2,1.3-0.7c0.2-0.5,0.3-1.5,0.3-3.1
				V954.9z"/>
			<path fill="#929497" d="M-281.4,944.8l-0.4,4.8c1.6-3.5,4-5.3,7.1-5.5V957c-2.1,0-3.6,0.3-4.5,0.8c-1,0.6-1.5,1.3-1.8,2.3
				c-0.2,1-0.3,3.3-0.3,6.8v14.5h-11.2v-36.6H-281.4z"/>
			<rect x="-464.7" y="944.8" fill="#929497" width="11.5" height="36.8"/>
			<path fill="#929497" d="M-437.8,944.8l-0.2,3.4c0.8-1.3,1.8-2.4,3-3c1.2-0.7,2.5-1,4.1-1c1.9,0,3.5,0.5,4.7,1.4
				c1.2,0.9,2,2,2.4,3.4c0.3,1.4,0.5,3.7,0.5,6.9v25.8h-11.2v-25.6c0-2.5-0.1-4.1-0.3-4.6c-0.2-0.6-0.6-0.8-1.4-0.8s-1.3,0.3-1.5,1
				c-0.2,0.6-0.3,2.3-0.3,5.1v24.9h-11.2v-36.9H-437.8z"/>
			<path fill="#424143" d="M-619.5,944.8l-0.2,3.5c0.9-1.4,1.9-2.4,3.1-3.1c1.2-0.7,2.6-1,4.1-1c3,0,5.3,1.4,7.1,4.2
				c0.9-1.4,2-2.4,3.2-3.1s2.5-1,3.9-1c1.9,0,3.5,0.5,4.7,1.4c1.2,0.9,2,2.1,2.4,3.4s0.5,3.5,0.5,6.5v26.2h-10.9v-24
				c0-3.1-0.1-5.1-0.3-5.8c-0.2-0.7-0.7-1.1-1.5-1.1c-0.8,0-1.3,0.4-1.5,1.1c-0.2,0.7-0.3,2.7-0.3,5.9v24H-616v-23.7
				c0-3.6-0.1-5.8-0.3-6.5c-0.2-0.7-0.7-1.1-1.5-1.1c-0.5,0-0.9,0.2-1.3,0.6c-0.4,0.4-0.5,0.8-0.6,1.4c0,0.5-0.1,1.7-0.1,3.5v25.5
				h-10.9v-36.8H-619.5z"/>
			<path fill="#424143" d="M-576.7,959h-10.5v-2.5c0-2.8,0.3-5,1-6.6c0.7-1.5,2-2.9,4-4.1s4.5-1.8,7.7-1.8c3.8,0,6.6,0.7,8.6,2
				c1.9,1.3,3.1,3,3.5,4.9c0.4,2,0.6,6,0.6,12v18.5h-10.9v-3.3c-0.7,1.3-1.6,2.3-2.6,3c-1.1,0.7-2.4,1-3.9,1c-2,0-3.8-0.6-5.4-1.7
				c-1.6-1.1-2.5-3.5-2.5-7.2v-3c0-2.8,0.4-4.6,1.3-5.6c0.9-1,3-2.2,6.5-3.5c3.7-1.4,5.7-2.4,5.9-2.9c0.3-0.5,0.4-1.5,0.4-3.1
				c0-1.9-0.1-3.2-0.4-3.8s-0.8-0.9-1.4-0.9c-0.8,0-1.2,0.2-1.4,0.7c-0.2,0.5-0.3,1.8-0.3,3.8v4.1H-576.7z M-573.2,964.1
				c-1.8,1.3-2.8,2.4-3.1,3.3c-0.3,0.9-0.4,2.2-0.4,3.8c0,1.9,0.1,3.1,0.4,3.7c0.3,0.6,0.7,0.8,1.5,0.8c0.7,0,1.2-0.2,1.4-0.7
				c0.2-0.4,0.3-1.6,0.3-3.4v-7.5H-573.2z"/>
			<path fill="#424143" d="M-535.3,956.5h-9.9v-2c0-1.7-0.1-2.8-0.3-3.2c-0.2-0.5-0.7-0.7-1.5-0.7c-0.6,0-1.1,0.2-1.4,0.6
				c-0.3,0.4-0.5,1-0.5,1.9c0,1.1,0.1,2,0.2,2.5c0.2,0.5,0.6,1.1,1.4,1.7s2.4,1.5,4.8,2.7c3.3,1.6,5.4,3.1,6.4,4.5
				c1,1.4,1.5,3.5,1.5,6.1c0,3-0.4,5.3-1.2,6.8s-2.1,2.7-3.9,3.5c-1.8,0.8-4,1.2-6.6,1.2c-2.9,0-5.3-0.4-7.3-1.3s-3.4-2.1-4.2-3.6
				s-1.1-3.8-1.1-6.9v-1.8h9.9v2.3c0,2,0.1,3.3,0.4,3.9c0.2,0.6,0.8,0.9,1.5,0.9c0.8,0,1.4-0.2,1.7-0.6c0.3-0.4,0.5-1.2,0.5-2.5
				c0-1.8-0.2-2.9-0.6-3.3c-0.4-0.4-2.6-1.8-6.5-3.9c-3.3-1.8-5.3-3.5-6-5c-0.7-1.5-1.1-3.3-1.1-5.4c0-2.9,0.4-5.1,1.2-6.5
				c0.8-1.4,2.1-2.5,4-3.2c1.9-0.8,4-1.1,6.5-1.1c2.4,0,4.5,0.3,6.2,0.9c1.7,0.6,3,1.4,3.9,2.5c0.9,1,1.5,2,1.7,2.8
				c0.2,0.9,0.3,2.2,0.3,4.1L-535.3,956.5L-535.3,956.5z"/>
			<path fill="#424143" d="M-519.6,939.9v5.8h3v5.8h-3v19.7c0,2.4,0.1,3.8,0.4,4c0.3,0.3,1.3,0.4,3.1,0.4v5.9h-4.5
				c-2.6,0-4.4-0.1-5.5-0.3c-1.1-0.2-2.1-0.7-2.9-1.5c-0.8-0.8-1.3-1.6-1.5-2.6s-0.3-3.3-0.3-7v-18.6h-2.4v-5.8h2.4v-5.8H-519.6z"/>
			<path fill="#424143" d="M-488.7,963.8h-14.5v8c0,1.7,0.1,2.7,0.4,3.2c0.2,0.5,0.7,0.7,1.4,0.7c0.9,0,1.4-0.3,1.7-1
				c0.3-0.6,0.4-1.9,0.4-3.7v-4.9h10.6v2.7c0,2.3-0.1,4-0.4,5.2c-0.3,1.2-1,2.5-2,3.9c-1.1,1.4-2.4,2.4-4,3.1s-3.6,1-6.1,1
				c-2.4,0-4.5-0.3-6.3-1c-1.8-0.7-3.2-1.6-4.2-2.8s-1.7-2.5-2.1-3.9c-0.4-1.4-0.6-3.5-0.6-6.3v-10.5c0-3.2,0.4-5.8,1.3-7.6
				c0.9-1.9,2.3-3.3,4.3-4.3s4.2-1.5,6.8-1.5c3.1,0,5.7,0.6,7.8,1.8c2,1.2,3.5,2.8,4.3,4.7c0.8,2,1.2,4.7,1.2,8.3V963.8
				L-488.7,963.8z M-500,957.8v-2.7c0-1.9-0.1-3.1-0.3-3.7c-0.2-0.6-0.6-0.8-1.2-0.8c-0.8,0-1.3,0.2-1.4,0.7
				c-0.2,0.5-0.3,1.7-0.3,3.8v2.7H-500z"/>
			<path fill="#424143" d="M-473.9,944.8l-0.4,4.8c1.6-3.5,4-5.3,7.1-5.5V957c-2,0-3.6,0.3-4.5,0.8c-1,0.6-1.6,1.3-1.8,2.3
				c-0.2,1-0.3,3.3-0.3,6.8v14.5H-485v-36.6H-473.9z"/>
			<path fill="#FFFFFF" d="M-683.4,958.7c0,2.8-2.3,5.1-5,5.1c-2.8,0-5.1-2.3-5.1-5.1c0-2.8,2.3-5.1,5.1-5.1
				C-685.7,953.7-683.4,955.9-683.4,958.7"/>
			<path fill="#929497" d="M-622.3,1005.8l-2.6-3.9h-2.1v3.9h-2.7v-12.2h5.6c2.9,0,4.6,1.5,4.6,4l0,0c0,2-1.1,3.2-2.6,3.8l3,4.4
				C-619.1,1005.8-622.3,1005.8-622.3,1005.8z M-622.3,997.7c0-1.2-0.8-1.7-2.1-1.7h-2.7v3.5h2.7
				C-623,999.5-622.3,998.8-622.3,997.7L-622.3,997.7z"/>
			<polygon fill="#929497" points="-614.5,1005.8 -614.5,993.6 -605.3,993.6 -605.3,996 -611.8,996 -611.8,998.4 -606.1,998.4 
				-606.1,1000.8 -611.8,1000.8 -611.8,1003.4 -605.2,1003.4 -605.2,1005.8 			"/>
			<path fill="#929497" d="M-595.9,1006c-1.9,0-3.7-0.6-5.2-1.9l1.6-1.9c1.1,0.9,2.2,1.5,3.6,1.5c1.1,0,1.8-0.4,1.8-1.1l0,0
				c0-0.7-0.4-1-2.5-1.6c-2.5-0.6-4-1.3-4-3.7l0,0c0-2.2,1.8-3.7,4.3-3.7c1.8,0,3.3,0.6,4.5,1.6l-1.4,2c-1.1-0.7-2.1-1.2-3.2-1.2
				c-1,0-1.6,0.5-1.6,1.1l0,0c0,0.8,0.5,1.1,2.6,1.6c2.5,0.6,3.9,1.5,3.9,3.7l0,0C-591.4,1004.6-593.2,1006-595.9,1006"/>
			<polygon fill="#929497" points="-586.4,1005.8 -586.4,993.6 -577.2,993.6 -577.2,996 -583.7,996 -583.7,998.4 -578,998.4 
				-578,1000.8 -583.7,1000.8 -583.7,1003.4 -577.1,1003.4 -577.1,1005.8 			"/>
			<path fill="#929497" d="M-563,1005.8l-1.1-2.7h-5.2l-1.1,2.7h-2.7l5.2-12.3h2.5l5.2,12.3H-563z M-566.7,996.7l-1.6,4h3.2
				L-566.7,996.7z"/>
			<path fill="#929497" d="M-548.3,1005.8l-2.6-3.9h-2.1v3.9h-2.7v-12.2h5.6c2.9,0,4.6,1.5,4.6,4l0,0c0,2-1.1,3.2-2.6,3.8l3,4.4
				C-545.1,1005.8-548.3,1005.8-548.3,1005.8z M-548.2,997.7c0-1.2-0.8-1.7-2.1-1.7h-2.7v3.5h2.7
				C-549,999.5-548.2,998.8-548.2,997.7L-548.2,997.7z"/>
			<path fill="#929497" d="M-534.7,1006c-3.6,0-6.3-2.8-6.3-6.3l0,0c0-3.5,2.6-6.3,6.4-6.3c2.3,0,3.7,0.8,4.8,1.9l-1.7,2
				c-0.9-0.9-1.9-1.4-3.1-1.4c-2.1,0-3.5,1.7-3.5,3.8l0,0c0,2.1,1.4,3.8,3.5,3.8c1.4,0,2.3-0.6,3.2-1.4l1.7,1.7
				C-531,1005.2-532.4,1006-534.7,1006"/>
			<polygon fill="#929497" points="-517.3,1005.8 -517.3,1000.9 -522.3,1000.9 -522.3,1005.8 -525,1005.8 -525,993.6 -522.3,993.6 
				-522.3,998.4 -517.3,998.4 -517.3,993.6 -514.6,993.6 -514.6,1005.8 			"/>
			<path fill="#929497" d="M-498.3,1002.2c-1.4,0-2.6-1.2-2.6-2.6c0-1.4,1.2-2.6,2.6-2.6c1.4,0,2.6,1.2,2.6,2.6
				C-495.7,1001.1-496.9,1002.2-498.3,1002.2"/>
			<path fill="#929497" d="M-472.9,1005.8l-1.1-2.7h-5.2l-1.1,2.7h-2.7l5.2-12.3h2.5l5.2,12.3H-472.9z M-476.6,996.7l-1.6,4h3.2
				L-476.6,996.7z"/>
			<polygon fill="#929497" points="-457.1,1005.8 -463,998 -463,1005.8 -465.6,1005.8 -465.6,993.6 -463.1,993.6 -457.4,1001.1 
				-457.4,993.6 -454.8,993.6 -454.8,1005.8 			"/>
			<path fill="#929497" d="M-440.1,1005.8l-1.1-2.7h-5.2l-1.1,2.7h-2.7l5.2-12.3h2.5l5.2,12.3H-440.1z M-443.8,996.7l-1.6,4h3.2
				L-443.8,996.7z"/>
			<polygon fill="#929497" points="-432.8,1005.8 -432.8,993.6 -430.1,993.6 -430.1,1003.3 -424,1003.3 -424,1005.8 			"/>
			<polygon fill="#929497" points="-415.5,1000.9 -415.5,1005.8 -418.2,1005.8 -418.2,1001 -422.9,993.6 -419.8,993.6 -416.9,998.5 
				-413.9,993.6 -410.8,993.6 			"/>
			<path fill="#929497" d="M-402.8,1006c-1.9,0-3.7-0.6-5.2-1.9l1.6-1.9c1.1,0.9,2.3,1.5,3.6,1.5c1.1,0,1.8-0.4,1.8-1.1l0,0
				c0-0.7-0.4-1-2.5-1.6c-2.5-0.6-4.1-1.3-4.1-3.7l0,0c0-2.2,1.8-3.7,4.3-3.7c1.8,0,3.3,0.6,4.5,1.6l-1.4,2
				c-1.1-0.7-2.1-1.2-3.2-1.2c-1,0-1.6,0.5-1.6,1.1l0,0c0,0.8,0.5,1.1,2.6,1.6c2.5,0.6,3.9,1.5,3.9,3.7l0,0
				C-398.3,1004.6-400.2,1006-402.8,1006"/>
			<polygon fill="#929497" points="-393.4,1005.8 -393.4,993.6 -384.2,993.6 -384.2,996 -390.7,996 -390.7,998.4 -384.9,998.4 
				-384.9,1000.8 -390.7,1000.8 -390.7,1003.4 -384.1,1003.4 -384.1,1005.8 			"/>
			<path fill="#929497" d="M-368.3,1002.2c-1.4,0-2.6-1.2-2.6-2.6c0-1.4,1.2-2.6,2.6-2.6s2.6,1.2,2.6,2.6
				C-365.7,1001.1-366.9,1002.2-368.3,1002.2"/>
			<rect x="-351.9" y="993.6" fill="#929497" width="2.7" height="12.2"/>
			<polygon fill="#929497" points="-335,1005.8 -340.9,998 -340.9,1005.8 -343.5,1005.8 -343.5,993.6 -341,993.6 -335.3,1001.1 
				-335.3,993.6 -332.7,993.6 -332.7,1005.8 			"/>
			<polygon fill="#929497" points="-320.8,1005.9 -323.2,1005.9 -328.2,993.6 -325.2,993.6 -322,1002.2 -318.8,993.6 -315.9,993.6 
							"/>
			<polygon fill="#929497" points="-311.4,1005.8 -311.4,993.6 -302.2,993.6 -302.2,996 -308.7,996 -308.7,998.4 -303,998.4 
				-303,1000.8 -308.7,1000.8 -308.7,1003.4 -302.1,1003.4 -302.1,1005.8 			"/>
			<path fill="#929497" d="M-292.7,1006c-1.8,0-3.7-0.6-5.2-1.9l1.6-1.9c1.1,0.9,2.3,1.5,3.6,1.5c1.1,0,1.8-0.4,1.8-1.1l0,0
				c0-0.7-0.4-1-2.5-1.6c-2.5-0.6-4-1.3-4-3.7l0,0c0-2.2,1.8-3.7,4.3-3.7c1.8,0,3.3,0.6,4.5,1.6l-1.4,2c-1.1-0.7-2.2-1.2-3.2-1.2
				s-1.6,0.5-1.6,1.1l0,0c0,0.8,0.5,1.1,2.6,1.6c2.5,0.6,3.9,1.5,3.9,3.7l0,0C-288.3,1004.6-290.1,1006-292.7,1006"/>
			<polygon fill="#929497" points="-278,996 -278,1005.8 -280.7,1005.8 -280.7,996 -284.4,996 -284.4,993.6 -274.3,993.6 
				-274.3,996 			"/>
			<polygon fill="#27A8E0" points="-381.8,932.2 -381.8,921.7 -386.4,928.6 -386.4,928.6 -390.9,921.8 -390.9,932.2 -394.4,932.2 
				-394.4,916.1 -390.6,916.1 -386.4,922.9 -382.1,916.1 -378.3,916.1 -378.3,932.2 			"/>
			<path fill="#27A8E0" d="M-363.6,932.2l-1.5-3.6h-6.8l-1.5,3.6h-3.6l6.9-16.2h3.3l6.9,16.2H-363.6z M-368.5,920.3l-2.1,5.2h4.3
				L-368.5,920.3z"/>
			<path fill="#27A8E0" d="M-351.9,932.5c-5,0-8.5-3.5-8.5-8.3l0,0c0-4.6,3.6-8.3,8.4-8.3c2.9,0,4.6,0.8,6.3,2.2l-2.2,2.7
				c-1.2-1-2.3-1.6-4.2-1.6c-2.6,0-4.6,2.3-4.6,5l0,0c0,2.9,2,5.1,4.9,5.1c1.3,0,2.4-0.3,3.3-1V926h-3.5v-3h7v7
				C-346.7,931.3-349,932.5-351.9,932.5"/>
			<path fill="#27A8E0" d="M-330.8,932.2l-1.5-3.6h-6.8l-1.5,3.6h-3.6l6.9-16.2h3.3l6.9,16.2H-330.8z M-335.7,920.3l-2.1,5.2h4.3
				L-335.7,920.3z"/>
			<polygon fill="#27A8E0" points="-326.3,932.2 -326.3,929.5 -317.4,919.2 -326,919.2 -326,916.1 -312.9,916.1 -312.9,918.8 
				-321.7,929.1 -312.9,929.1 -312.9,932.2 			"/>
			<rect x="-310.5" y="916.1" fill="#27A8E0" width="3.5" height="16.1"/>
			<polygon fill="#27A8E0" points="-292.8,932.2 -300.6,922 -300.6,932.2 -304.1,932.2 -304.1,916.1 -300.9,916.1 -293.3,926 
				-293.3,916.1 -289.8,916.1 -289.8,932.2 			"/>
			<polygon fill="#27A8E0" points="-287.1,932.2 -287.1,916.1 -275,916.1 -275,919.3 -283.6,919.3 -283.6,922.6 -276,922.6 
				-276,925.7 -283.6,925.7 -283.6,929.1 -274.9,929.1 -274.9,932.2 			"/>
		</g>
	</g>
</g>
</svg>
