<?xml version="1.0" encoding="utf-8"?>
<!-- Generator: Adobe Illustrator 18.1.1, SVG Export Plug-In . SVG Version: 6.00 Build 0)  -->
<svg version="1.1" id="Layer_1" xmlns="http://www.w3.org/2000/svg" xmlns:xlink="http://www.w3.org/1999/xlink" x="0px" y="0px"
	 width="290px" height="45.5px" viewBox="0 0 290 45.5" enable-background="new 0 0 290 45.5" xml:space="preserve">
<g>
	<polygon fill="#27A8E0" points="44.6,18.7 46.5,18.4 48.1,4.9 45.8,4.6 45.8,2.7 54.6,2.7 57.1,12.3 57.5,14.7 57.9,12.3 59.8,2.7 
		68.8,2.7 68.8,4.6 66.2,4.9 68.3,18.4 70.2,18.7 70.2,20.5 61.3,20.5 61.3,18.7 63.2,18.4 62.2,8.3 61.8,4.3 61.1,7.9 58.5,19.9 
		54.5,19.9 51.1,8.3 50.2,4.2 50,8.3 49.3,18.4 51.8,18.7 51.8,20.5 44.6,20.5 	"/>
	<path fill="#27A8E0" d="M69.4,18.7l1.3-0.3l5.1-15.8h5.2l5.1,15.8l1.3,0.3v1.8h-8.2v-1.8l1.6-0.3l-0.7-2.5h-5.1l-0.7,2.6l1.8,0.2
		v1.8h-6.7L69.4,18.7z M79.6,13.9l-1.8-6.8l-0.3-1.5l-0.3,1.5l-1.7,6.8H79.6z"/>
	<path fill="#27A8E0" d="M88.5,14.9h2.6l0.7,3c0.1,0.2,0.4,0.3,0.8,0.5c0.4,0.2,0.9,0.2,1.6,0.2c0.9,0,1.5-0.2,1.9-0.6
		c0.4-0.4,0.6-0.9,0.6-1.5c0-0.4-0.1-0.7-0.3-1c-0.2-0.3-0.4-0.6-0.8-0.8c-0.3-0.3-0.8-0.5-1.2-0.8c-0.5-0.3-1-0.5-1.7-0.8
		c-0.4-0.2-0.9-0.5-1.4-0.8c-0.5-0.3-1-0.7-1.4-1.1c-0.4-0.5-0.8-1-1.1-1.6c-0.3-0.6-0.4-1.3-0.4-2.2c0-0.6,0.1-1.2,0.4-1.8
		c0.2-0.6,0.6-1.1,1.1-1.6c0.5-0.5,1.2-0.8,2-1.1c0.8-0.3,1.9-0.4,3-0.4c0.8,0,1.4,0,2,0.1c0.6,0,1.1,0.1,1.5,0.1
		c0.4,0,0.8,0.1,1.1,0.1c0.3,0,0.5,0.1,0.7,0.1l-0.2,4.4h-2.5L97,4.9c-0.1-0.1-0.3-0.2-0.6-0.3c-0.3-0.1-0.7-0.1-1.2-0.1
		c-0.4,0-0.8,0.1-1.1,0.2c-0.3,0.1-0.5,0.3-0.7,0.4c-0.2,0.2-0.3,0.4-0.4,0.6C93,5.9,93,6.1,93,6.4c0,0.4,0.1,0.8,0.4,1.1
		c0.2,0.3,0.6,0.6,1,0.9c0.4,0.3,0.9,0.6,1.4,0.8c0.5,0.3,1,0.5,1.6,0.8c0.3,0.1,0.6,0.3,0.9,0.5c0.3,0.2,0.6,0.4,1,0.6
		c0.3,0.2,0.6,0.5,0.9,0.7c0.3,0.3,0.5,0.6,0.8,0.9c0.2,0.3,0.4,0.7,0.5,1.1c0.1,0.4,0.2,0.8,0.2,1.3c0,0.4,0,0.8-0.1,1.2
		c-0.1,0.4-0.2,0.8-0.4,1.2c-0.2,0.4-0.5,0.8-0.8,1.1c-0.3,0.4-0.8,0.7-1.3,0.9c-0.5,0.3-1.1,0.5-1.9,0.7c-0.7,0.2-1.6,0.2-2.6,0.2
		c-0.8,0-1.5-0.1-2.1-0.2c-0.7-0.1-1.3-0.2-1.8-0.3c-0.5-0.1-1-0.2-1.4-0.4c-0.4-0.1-0.7-0.2-0.9-0.2L88.5,14.9z"/>
	<polygon fill="#27A8E0" points="105.4,18.7 108.4,18.5 108.4,4.8 106,4.8 104.9,10.3 102.3,10.3 102.6,2.7 118.9,2.7 119.2,10.3 
		116.8,10.3 115.6,4.8 113.3,4.8 113.3,18.5 116.6,18.7 116.6,20.5 105.4,20.5 	"/>
	<polygon fill="#27A8E0" points="120.4,18.7 122.1,18.4 122.1,5 120.3,4.6 120.3,2.7 133.9,2.7 134.2,7.2 132,7.2 131.1,4.6 
		127,4.6 127,10.4 129.4,10.4 129.9,8.4 131.7,8.4 131.7,14.6 129.9,14.6 129.4,12.5 127,12.5 127,18.7 131.5,18.3 133.1,15.2 
		135.4,15.8 134.9,20.5 120.4,20.5 	"/>
	<path fill="#27A8E0" d="M136.2,18.7l1.7-0.3V5l-1.7-0.3v-2h4h1h0.9h1h1.2c1.3,0,2.4,0.1,3.3,0.3c0.9,0.2,1.7,0.4,2.2,0.8
		c0.6,0.4,1,0.9,1.2,1.5c0.3,0.6,0.4,1.3,0.4,2.2c0,0.5-0.1,0.9-0.2,1.4c-0.1,0.5-0.3,1-0.6,1.4c-0.3,0.5-0.6,0.9-1,1.2
		c-0.4,0.4-0.9,0.6-1.5,0.8c0.5,0.2,1,0.4,1.3,0.8c0.4,0.4,0.7,0.8,1,1.2c0.3,0.4,0.5,0.9,0.8,1.4c0.2,0.5,0.4,0.9,0.6,1.3
		c0.2,0.4,0.4,0.8,0.5,1c0.2,0.3,0.3,0.5,0.5,0.5l0.6,0.2v1.8h-5.2c-0.1,0-0.3-0.1-0.4-0.3c-0.1-0.2-0.3-0.5-0.4-0.8
		c-0.1-0.3-0.3-0.7-0.4-1.1l-0.4-1.3c-0.1-0.4-0.3-0.9-0.5-1.3c-0.2-0.4-0.3-0.8-0.5-1.2c-0.2-0.4-0.4-0.7-0.6-0.9
		c-0.2-0.2-0.4-0.4-0.6-0.5h-1.7v5.4l2,0.3v1.8h-8.6V18.7z M142.8,11.2c0,0,0.1,0,0.2,0.1c0.1,0,0.2,0,0.4,0h0.4h0.3
		c0.7,0,1.3-0.3,1.7-0.9c0.4-0.6,0.6-1.6,0.6-2.9c0-0.6,0-1-0.1-1.4c-0.1-0.4-0.2-0.7-0.4-1c-0.2-0.3-0.5-0.4-0.8-0.6
		c-0.3-0.1-0.7-0.2-1.1-0.2c-0.3,0-0.6,0-0.8,0c-0.2,0-0.3,0-0.4,0.1V11.2z"/>
	<polygon fill="#27A8E0" points="160.2,18.7 162,18.4 162,4.9 160.1,4.6 160.1,2.7 168.7,2.7 168.7,4.6 166.8,4.9 166.8,18.4 
		168.7,18.7 168.7,20.5 160.2,20.5 	"/>
	<polygon fill="#27A8E0" points="170.1,18.7 172,18.4 172,4.9 170.1,4.6 170.1,2.7 176.9,2.7 182.9,12.2 184.3,15.2 184.3,4.9 
		182.2,4.6 182.2,2.7 188.6,2.7 188.6,4.6 186.8,4.9 186.8,20.5 182.5,20.5 176,10 174.6,6.9 174.6,18.4 177.2,18.7 177.2,20.5 
		170.1,20.5 	"/>
	<polygon fill="#27A8E0" points="189.8,5 188.4,4.6 188.4,2.7 197,2.7 197,4.6 195.1,5 198.1,14.8 198.5,16.5 198.9,14.8 201.9,5 
		200,4.6 200,2.7 206.5,2.7 206.5,4.6 204.9,5 199.6,20.5 195.7,20.5 	"/>
	<polygon fill="#27A8E0" points="206.6,18.7 208.4,18.4 208.4,5 206.6,4.6 206.6,2.7 220.1,2.7 220.4,7.2 218.3,7.2 217.4,4.6 
		213.2,4.6 213.2,10.4 215.6,10.4 216.1,8.4 217.9,8.4 217.9,14.6 216.1,14.6 215.7,12.5 213.2,12.5 213.2,18.7 217.7,18.3 
		219.3,15.2 221.6,15.8 221.1,20.5 206.6,20.5 	"/>
	<path fill="#27A8E0" d="M223.2,14.9h2.6l0.7,3c0.1,0.2,0.4,0.3,0.8,0.5c0.4,0.2,0.9,0.2,1.6,0.2c0.9,0,1.5-0.2,1.9-0.6
		c0.4-0.4,0.6-0.9,0.6-1.5c0-0.4-0.1-0.7-0.3-1c-0.2-0.3-0.4-0.6-0.8-0.8c-0.3-0.3-0.8-0.5-1.2-0.8c-0.5-0.3-1-0.5-1.7-0.8
		c-0.4-0.2-0.9-0.5-1.4-0.8c-0.5-0.3-1-0.7-1.4-1.1c-0.4-0.5-0.8-1-1.1-1.6c-0.3-0.6-0.4-1.3-0.4-2.2c0-0.6,0.1-1.2,0.4-1.8
		c0.2-0.6,0.6-1.1,1.1-1.6c0.5-0.5,1.2-0.8,2-1.1c0.8-0.3,1.9-0.4,3-0.4c0.8,0,1.4,0,2,0.1c0.6,0,1.1,0.1,1.5,0.1
		c0.4,0,0.8,0.1,1.1,0.1c0.3,0,0.5,0.1,0.7,0.1l-0.2,4.4h-2.5l-0.6-2.5c-0.1-0.1-0.3-0.2-0.6-0.3c-0.3-0.1-0.7-0.1-1.2-0.1
		c-0.4,0-0.8,0.1-1.1,0.2c-0.3,0.1-0.5,0.3-0.7,0.4c-0.2,0.2-0.3,0.4-0.4,0.6c-0.1,0.2-0.1,0.5-0.1,0.7c0,0.4,0.1,0.8,0.4,1.1
		c0.2,0.3,0.6,0.6,1,0.9c0.4,0.3,0.9,0.6,1.4,0.8c0.5,0.3,1,0.5,1.6,0.8c0.3,0.1,0.6,0.3,0.9,0.5c0.3,0.2,0.6,0.4,1,0.6
		c0.3,0.2,0.6,0.5,0.9,0.7c0.3,0.3,0.5,0.6,0.8,0.9c0.2,0.3,0.4,0.7,0.5,1.1c0.1,0.4,0.2,0.8,0.2,1.3c0,0.4,0,0.8-0.1,1.2
		c-0.1,0.4-0.2,0.8-0.4,1.2c-0.2,0.4-0.5,0.8-0.8,1.1c-0.3,0.4-0.8,0.7-1.3,0.9c-0.5,0.3-1.1,0.5-1.9,0.7c-0.7,0.2-1.6,0.2-2.6,0.2
		c-0.8,0-1.5-0.1-2.1-0.2c-0.7-0.1-1.3-0.2-1.8-0.3c-0.5-0.1-1-0.2-1.4-0.4c-0.4-0.1-0.7-0.2-0.9-0.2L223.2,14.9z"/>
	<polygon fill="#27A8E0" points="240,18.7 243,18.5 243,4.8 240.6,4.8 239.5,10.3 236.9,10.3 237.3,2.7 253.5,2.7 253.8,10.3 
		251.4,10.3 250.2,4.8 247.9,4.8 247.9,18.5 251.2,18.7 251.2,20.5 240,20.5 	"/>
	<path fill="#27A8E0" d="M263,20.5c-1.5,0-2.7-0.2-3.8-0.6c-1-0.4-1.9-1-2.5-1.8c-0.7-0.8-1.1-1.7-1.4-2.8c-0.3-1.1-0.4-2.3-0.4-3.7
		c0-1.4,0.2-2.6,0.6-3.7c0.4-1.1,0.9-2,1.7-2.8c0.7-0.8,1.6-1.4,2.6-1.8c1-0.4,2.2-0.6,3.5-0.6c1.5,0,2.7,0.2,3.8,0.6
		c1,0.4,1.9,1,2.5,1.7c0.7,0.7,1.1,1.6,1.4,2.7c0.3,1.1,0.4,2.2,0.4,3.6c0,1.4-0.2,2.6-0.6,3.7c-0.4,1.1-0.9,2.1-1.7,2.9
		c-0.7,0.8-1.6,1.5-2.6,1.9C265.5,20.3,264.3,20.5,263,20.5 M263.1,18.7c0.9,0,1.7-0.6,2.2-1.9c0.5-1.3,0.8-3.1,0.8-5.6
		c0-1.3-0.1-2.4-0.2-3.3c-0.1-0.9-0.3-1.6-0.6-2.1c-0.3-0.5-0.6-0.9-0.9-1.1c-0.4-0.2-0.8-0.3-1.2-0.3c-1,0-1.7,0.6-2.2,1.7
		c-0.5,1.2-0.8,3-0.8,5.4c0,1.3,0.1,2.5,0.2,3.4c0.1,0.9,0.3,1.7,0.6,2.2c0.3,0.6,0.6,1,0.9,1.2C262.3,18.6,262.7,18.7,263.1,18.7"
		/>
	<path fill="#27A8E0" d="M272.7,18.7l1.7-0.3V5l-1.7-0.3v-2h4h1h0.9h1h1.2c1.3,0,2.4,0.1,3.3,0.3c0.9,0.2,1.7,0.4,2.2,0.8
		c0.6,0.4,1,0.9,1.2,1.5c0.3,0.6,0.4,1.3,0.4,2.2c0,0.5-0.1,0.9-0.2,1.4c-0.1,0.5-0.3,1-0.6,1.4c-0.3,0.5-0.6,0.9-1,1.2
		c-0.4,0.4-0.9,0.6-1.5,0.8c0.5,0.2,1,0.4,1.3,0.8c0.4,0.4,0.7,0.8,1,1.2c0.3,0.4,0.5,0.9,0.8,1.4c0.2,0.5,0.4,0.9,0.6,1.3
		c0.2,0.4,0.4,0.8,0.5,1c0.2,0.3,0.3,0.5,0.5,0.5l0.6,0.2v1.8h-5.2c-0.1,0-0.3-0.1-0.4-0.3c-0.1-0.2-0.3-0.5-0.4-0.8
		c-0.1-0.3-0.3-0.7-0.4-1.1l-0.4-1.3c-0.1-0.4-0.3-0.9-0.5-1.3c-0.2-0.4-0.3-0.8-0.5-1.2c-0.2-0.4-0.4-0.7-0.6-0.9
		c-0.2-0.2-0.4-0.4-0.6-0.5h-1.7v5.4l2,0.3v1.8h-8.6V18.7z M279.3,11.2c0,0,0.1,0,0.2,0.1c0.1,0,0.2,0,0.4,0h0.4h0.3
		c0.7,0,1.3-0.3,1.7-0.9c0.4-0.6,0.6-1.6,0.6-2.9c0-0.6,0-1-0.1-1.4c-0.1-0.4-0.2-0.7-0.4-1c-0.2-0.3-0.5-0.4-0.8-0.6
		c-0.3-0.1-0.7-0.2-1.1-0.2c-0.3,0-0.6,0-0.8,0c-0.2,0-0.3,0-0.4,0.1V11.2z"/>
	<polygon fill="#27A8E0" points="44.6,43.7 46.5,43.4 48.1,29.9 45.8,29.6 45.8,27.7 54.6,27.7 57.1,37.3 57.5,39.7 57.9,37.3 
		59.8,27.7 68.8,27.7 68.8,29.6 66.2,29.9 68.3,43.4 70.2,43.7 70.2,45.5 61.3,45.5 61.3,43.7 63.2,43.4 62.2,33.3 61.8,29.3 
		61.1,32.9 58.5,44.9 54.5,44.9 51.1,33.3 50.2,29.2 50,33.3 49.3,43.4 51.8,43.7 51.8,45.5 44.6,45.5 	"/>
	<path fill="#27A8E0" d="M69.4,43.7l1.3-0.3l5.1-15.8h5.2l5.1,15.8l1.3,0.3v1.8h-8.2v-1.8l1.6-0.3l-0.7-2.5h-5.1l-0.7,2.6l1.8,0.2
		v1.8h-6.7L69.4,43.7z M79.6,38.9l-1.8-6.8l-0.3-1.5l-0.3,1.5l-1.7,6.8H79.6z"/>
	<path fill="#27A8E0" d="M87.7,36.7c0-1.5,0.2-2.8,0.6-3.9s1-2.1,1.8-2.8c0.8-0.8,1.8-1.3,3-1.7c1.2-0.4,2.5-0.6,4-0.6
		c0.6,0,1.3,0,1.9,0.1c0.7,0.1,1.3,0.1,1.8,0.2c0.6,0.1,1.1,0.2,1.5,0.3c0.4,0.1,0.8,0.2,1,0.2l-0.3,4.6h-3.5l-0.7-3.1
		c0,0-0.1-0.1-0.2-0.2c-0.1-0.1-0.2-0.1-0.4-0.2c-0.1-0.1-0.3-0.1-0.5-0.1s-0.5,0-0.8,0c-1.3,0-2.2,0.6-2.8,1.8
		c-0.6,1.2-0.9,2.9-0.9,5.2c0,1.1,0.1,2.1,0.2,3c0.1,0.9,0.3,1.6,0.6,2.3c0.3,0.6,0.6,1.1,1,1.4c0.4,0.3,1,0.5,1.6,0.5
		c0.5,0,0.9-0.1,1.3-0.2c0.4-0.1,0.6-0.3,0.8-0.5v-4.9l-1.9-0.3v-1.9h7.7v1.9l-1.1,0.2v6.2c-0.3,0-0.7,0.1-1.2,0.2
		c-0.5,0.1-1.1,0.3-1.7,0.4c-0.6,0.2-1.3,0.3-2.1,0.4c-0.7,0.1-1.5,0.2-2.3,0.2c-1.4,0-2.6-0.2-3.7-0.7c-1.1-0.5-2-1.1-2.7-1.9
		c-0.7-0.8-1.3-1.7-1.6-2.8C87.9,39.1,87.7,37.9,87.7,36.7"/>
	<path fill="#27A8E0" d="M104.6,43.7l1.3-0.3l5.1-15.8h5.2l5.1,15.8l1.3,0.3v1.8h-8.2v-1.8l1.6-0.3l-0.7-2.5h-5.1l-0.7,2.6l1.8,0.2
		v1.8h-6.7L104.6,43.7z M114.8,38.9l-1.8-6.8l-0.3-1.5l-0.3,1.5l-1.7,6.8H114.8z"/>
	<polygon fill="#27A8E0" points="122.4,44 130.7,31.1 132.2,29.6 127.1,29.9 125.7,33.3 123.3,32.9 123.9,27.7 136.8,27.7 
		137.5,29.3 129.4,42.3 127.7,43.8 133.8,43.2 135.2,39.6 137.6,40.1 137.1,45.5 123.3,45.5 	"/>
	<polygon fill="#27A8E0" points="138.9,43.7 140.7,43.4 140.7,29.9 138.9,29.6 138.9,27.7 147.5,27.7 147.5,29.6 145.6,29.9 
		145.6,43.4 147.5,43.7 147.5,45.5 138.9,45.5 	"/>
	<polygon fill="#27A8E0" points="148.9,43.7 150.7,43.4 150.7,29.9 148.9,29.6 148.9,27.7 155.7,27.7 161.6,37.2 163,40.2 163,29.9 
		161,29.6 161,27.7 167.3,27.7 167.3,29.6 165.6,29.9 165.6,45.5 161.2,45.5 154.8,35 153.3,31.9 153.3,43.4 156,43.7 156,45.5 
		148.9,45.5 	"/>
	<polygon fill="#27A8E0" points="168.3,43.7 170.1,43.4 170.1,30 168.3,29.6 168.3,27.7 181.8,27.7 182.1,32.2 180,32.2 179.1,29.6 
		174.9,29.6 174.9,35.4 177.3,35.4 177.8,33.4 179.6,33.4 179.6,39.6 177.8,39.6 177.4,37.5 174.9,37.5 174.9,43.7 179.4,43.3 
		181,40.2 183.3,40.8 182.8,45.5 168.3,45.5 	"/>
	<path fill="#27A8E0" d="M12.8,28.9c0,0,0.1,0,0.1,0l14.3,1.7l-3.7-4.7c2.9-2.3,5-5.7,5.4-9.6c1-7.9-4.7-15.2-12.6-16.1
		C8.3-0.9,1.1,4.8,0.1,12.7C-0.8,20.7,4.8,27.9,12.8,28.9 M5,13.3c0.6-5.2,5.4-9,10.7-8.3c5.2,0.6,9,5.4,8.3,10.7
		c-0.6,5.2-5.4,9-10.7,8.3C8.1,23.4,4.4,18.6,5,13.3"/>
	<path fill="#27A8E0" d="M15.1,9.7c2.6,0.3,4.5,2.7,4.2,5.4c-0.3,2.6-2.7,4.5-5.4,4.2c-2.6-0.3-4.5-2.7-4.2-5.4
		C10,11.3,12.4,9.4,15.1,9.7"/>
	<g opacity="0.2">
		<g>
			<defs>
				<rect id="SVGID_1_" y="0" width="23.6" height="20.5"/>
			</defs>
			<clipPath id="SVGID_2_">
				<use xlink:href="#SVGID_1_"  overflow="visible"/>
			</clipPath>
			<g clip-path="url(#SVGID_2_)">
				<defs>
					<rect id="SVGID_3_" y="0" width="23.6" height="20.5"/>
				</defs>
				<clipPath id="SVGID_4_">
					<use xlink:href="#SVGID_3_"  overflow="visible"/>
				</clipPath>
				<path clip-path="url(#SVGID_4_)" fill="#FFFFFF" d="M15.1,9.7c1.2,0.1,2.3,0.7,3,1.6c-1,1.1-2.2,2.1-3.4,3.1
					c-1.4,1.1-2.8,2-4.2,2.8c-0.6-0.9-0.9-2.1-0.8-3.3C10,11.3,12.4,9.4,15.1,9.7"/>
				<path clip-path="url(#SVGID_4_)" fill="#FFFFFF" d="M16.2,0.1c2.8,0.3,5.4,1.5,7.4,3.2c-0.6,1.4-1.5,2.9-2.5,4.3
					c-1.4-1.4-3.3-2.4-5.5-2.6C10.4,4.4,5.6,8.1,5,13.3c-0.3,2.1,0.2,4.1,1.2,5.9c-1.7,0.6-3.3,1.1-4.8,1.3c-1.1-2.3-1.5-5-1.2-7.8
					C1.1,4.8,8.3-0.8,16.2,0.1"/>
			</g>
		</g>
	</g>
	<path fill="#FFFFFF" d="M16.1,14.6c0,0.9-0.8,1.7-1.7,1.7s-1.7-0.8-1.7-1.7c0-0.9,0.8-1.7,1.7-1.7S16.1,13.6,16.1,14.6"/>
</g>
</svg>
