<?xml version="1.0" encoding="utf-8"?>
<!-- Generator: Adobe Illustrator 18.1.1, SVG Export Plug-In . SVG Version: 6.00 Build 0)  -->
<svg version="1.1" id="Layer_1" xmlns="http://www.w3.org/2000/svg" xmlns:xlink="http://www.w3.org/1999/xlink" x="0px" y="0px"
	 width="23.4px" height="23.4px" viewBox="0 0 23.4 23.4" enable-background="new 0 0 23.4 23.4" xml:space="preserve">
<g>
	<path fill="#1E2832" d="M13.9,17.8c-1.1,0-3.9-2.2-5-3.3c-1.1-1.1-3.3-3.9-3.3-5c0-1.1,2.9-2.5,2.9-3.1L6.1,0c0,0-0.6,0-2.2,0
		C2.8,0,0,3.3,0,5.6c0,2.2,1.1,6.7,6.1,11.7c5,5,9.5,6.1,11.7,6.1c2.2,0,5.6-2.8,5.6-3.9c0-1.7,0-2.2,0-2.2L17,14.9
		C16.5,14.9,15,17.8,13.9,17.8z"/>
</g>
</svg>
