<?xml version="1.0" encoding="utf-8"?>
<!-- Generator: Adobe Illustrator 18.1.1, SVG Export Plug-In . SVG Version: 6.00 Build 0)  -->
<svg version="1.1" id="Layer_1" xmlns="http://www.w3.org/2000/svg" xmlns:xlink="http://www.w3.org/1999/xlink" x="0px" y="0px"
	 width="17.5px" height="26.3px" viewBox="0 0 17.5 26.3" enable-background="new 0 0 17.5 26.3" xml:space="preserve">
<path fill="#333333" d="M17.5,8.8c0-4.8-3.9-8.8-8.8-8.8C3.9,0,0,3.9,0,8.8c0,1.6,0.4,3.1,1.2,4.4h0l7.6,13.1l7.6-13.1h0
	C17.1,11.8,17.5,10.4,17.5,8.8z M8.8,13.3c-2.5,0-4.5-2-4.5-4.5c0-2.5,2-4.5,4.5-4.5c2.5,0,4.5,2,4.5,4.5
	C13.3,11.2,11.2,13.3,8.8,13.3z"/>
</svg>
