<?xml version="1.0" encoding="utf-8"?>
<!-- Generator: Adobe Illustrator 18.1.1, SVG Export Plug-In . SVG Version: 6.00 Build 0)  -->
<svg version="1.1" id="Layer_1" xmlns="http://www.w3.org/2000/svg" xmlns:xlink="http://www.w3.org/1999/xlink" x="0px" y="0px"
	 width="32px" height="13px" viewBox="-955.7 954.2 32 13" enable-background="new -955.7 954.2 32 13" xml:space="preserve">
<g>
	<g>
		<g>
			<g>
				<path fill="#29AAE1" d="M-954.6,961.8l5.5,5.4l2.3-2.2l-4.4-4.3l4.4-4.3l-2.3-2.2l-5.5,5.4l-1.1,1.1L-954.6,961.8z M-942,967.2
					l2.3-2.2l-4.4-4.3l4.4-4.3l-2.3-2.2l-6.6,6.5L-942,967.2z"/>
			</g>
		</g>
	</g>
</g>
<g>
	<g>
		<g>
			<g>
				<path fill="#231F20" d="M-938.6,961.8l5.5,5.4l2.3-2.2l-4.4-4.3l4.4-4.3l-2.3-2.2l-5.5,5.4l-1.1,1.1L-938.6,961.8z M-926,967.2
					l2.3-2.2l-4.4-4.3l4.4-4.3l-2.3-2.2l-6.6,6.5L-926,967.2z"/>
			</g>
		</g>
	</g>
</g>
</svg>
