<?xml version="1.0" encoding="utf-8"?>
<!-- Generator: Adobe Illustrator 18.1.1, SVG Export Plug-In . SVG Version: 6.00 Build 0)  -->
<svg version="1.1" id="Layer_1" xmlns="http://www.w3.org/2000/svg" xmlns:xlink="http://www.w3.org/1999/xlink" x="0px" y="0px"
	 width="36.9px" height="30px" viewBox="0 0 36.9 30" enable-background="new 0 0 36.9 30" xml:space="preserve">
<g>
	<g>
		<path fill="#29AAE1" d="M33.1,7.5c0,0.3,0,0.6,0,1c0,10-7.6,21.5-21.5,21.5C7.3,30,3.3,28.8,0,26.6c0.6,0.1,1.2,0.1,1.8,0.1
			c3.5,0,6.8-1.2,9.4-3.2c-3.3-0.1-6.1-2.2-7.1-5.2c0.5,0.1,0.9,0.1,1.4,0.1c0.7,0,1.4-0.1,2-0.3c-3.5-0.7-6.1-3.8-6.1-7.4
			c0,0,0-0.1,0-0.1c1,0.6,2.2,0.9,3.4,1c-2-1.3-3.4-3.7-3.4-6.3c0-1.4,0.4-2.7,1-3.8C6.3,6,11.9,9,18.2,9.3C18.1,8.7,18,8.2,18,7.6
			C18,3.4,21.4,0,25.6,0c2.2,0,4.1,0.9,5.5,2.4c1.7-0.3,3.3-1,4.8-1.8c-0.6,1.8-1.8,3.2-3.3,4.2c1.5-0.2,3-0.6,4.4-1.2
			C35.9,5.1,34.6,6.4,33.1,7.5z"/>
	</g>
</g>
</svg>
