<?xml version="1.0" encoding="utf-8"?>
<!-- Generator: Adobe Illustrator 18.1.1, SVG Export Plug-In . SVG Version: 6.00 Build 0)  -->
<svg version="1.1" id="Layer_1" xmlns="http://www.w3.org/2000/svg" xmlns:xlink="http://www.w3.org/1999/xlink" x="0px" y="0px"
	 width="23.1px" height="16.4px" viewBox="-934.5 952.4 23.1 16.4" enable-background="new -934.5 952.4 23.1 16.4"
	 xml:space="preserve">
<g>
	<path fill="#FFFFFF" d="M-918.5,952.4L-918.5,952.4L-918.5,952.4c0,0.1-0.1,0.3-0.3,0.5v0.1h0.1c0.5-0.2,0.9-0.2,1.2-0.2l0,0
		c0.1,0,0.2,0.1,0.2,0.2c0,0.2-0.5,0.4-1.4,0.6c-0.3,0.1-0.5,0.2-0.5,0.2v0.1l0,0c1.7,0,3.1,0.8,4.2,2.5c0.5,0.9,0.7,1.4,0.7,1.7
		c0.1,0.3,0.2,0.5,0.6,0.5h0.4c0.6,0,1.2-0.1,1.8-0.3v0.1c-0.2,0.5-0.8,0.9-1.6,1.1c-0.4,0.1-0.7,0.1-0.7,0.2v0.1
		c0.3,0.1,0.7,0.2,1.3,0.3h0.5c0.4,0,0.6,0,0.6,0.1c-0.7,0.5-1.3,0.8-1.9,0.8c0,0-0.2,0.1-0.5,0.1l-0.2-0.1c-0.1,0-0.2,0.3-0.3,0.9
		c-0.9,2.3-2.7,4.2-5.2,5.5c-1,0.5-2.1,0.9-3.3,1.1c-0.7,0.1-1.4,0.2-2.2,0.3h-1c-0.7,0-1.7-0.2-3.1-0.5c-2.3-0.8-4.1-2-5.4-3.6l0,0
		l0,0c1.2,0.7,2.2,1.1,3.2,1.1h1c0.9,0,2-0.4,3.1-1.1c0.3-0.2,0.5-0.4,0.8-0.6v-0.2c0,0-0.2-0.1-0.7-0.2c-0.5-0.3-0.8-0.6-0.8-0.9
		l0,0c0-0.3,0.2-0.6,0.7-0.9v-0.1c-1.2,0-2.1-0.5-2.7-1.4v-0.1c0.4-0.4,0.8-0.6,1.3-0.6l0.1-0.1v-0.1c-0.8-0.3-1.4-0.6-1.8-1
		c-0.4-0.5-0.6-0.9-0.6-1.2c0-0.1,0.4-0.2,1.3-0.2V957l-0.8-0.6c-0.7-0.7-1.1-1.4-1.1-2v-0.2l0.1-0.1c0.8,0.3,2.1,0.8,3.9,1.5
		c1.5,0.7,2.5,1.3,3.1,1.8c0.5,0.5,0.8,0.7,0.9,0.7l0.8-1.9c0.5-1,1-1.9,1.7-2.7c0.5-0.5,0.8-0.8,0.9-0.8l0,0l0.2,0.2l1-0.5H-918.5z
		 M-917.5,963.7h0.2v0.1L-917.5,963.7L-917.5,963.7z"/>
</g>
</svg>
