<?xml version="1.0" encoding="utf-8"?>
<!-- Generator: Adobe Illustrator 18.1.1, SVG Export Plug-In . SVG Version: 6.00 Build 0)  -->
<svg version="1.1" id="Layer_1" xmlns="http://www.w3.org/2000/svg" xmlns:xlink="http://www.w3.org/1999/xlink" x="0px" y="0px"
	 width="18.8px" height="18.9px" viewBox="-1882.4 1902.5 18.8 18.9" enable-background="new -1882.4 1902.5 18.8 18.9"
	 xml:space="preserve">
<path fill="#231F20" d="M-1878.5,1902.5h11.1c1.3,0,2.5,0.8,3.4,2.3c0.3,0.6,0.4,1.3,0.4,2v10.5c0,1.4-0.7,2.6-2,3.5
	c-0.7,0.4-1.3,0.6-1.7,0.6h-11.4c-1,0-2-0.6-3-1.8c-0.5-0.8-0.7-1.5-0.7-2.2v-10.9c0-1.3,0.7-2.5,2.1-3.5
	C-1879.7,1902.6-1879.1,1902.5-1878.5,1902.5z M-1872.1,1909.3l1.3,0.4c0.2,0.2,0.3,0.5,0.3,0.9v0.1c0,0.9-0.5,1.9-1.4,3.1l-0.3,0.1
	h-0.3c-0.7,0-1.2-1.6-1.5-4.9c-0.4-1.5-0.9-2.2-1.5-2.2h-0.5c-0.8,0-2.1,0.8-3.8,2.5l-0.2,0.3v0.2c0,0.3,0.2,0.5,0.6,0.5l1.4-0.2
	c0.4,0.2,0.8,1.4,1.4,3.6c0.6,3,1.4,4.5,2.5,4.5h0.4c1.8,0,3.8-2.1,6.2-6.3c0.8-1.8,1.3-3.1,1.3-3.9v-0.4c0-0.5-0.3-0.9-1-1.2
	l-0.7-0.1h-0.3c-1.5,0-2.7,0.9-3.7,2.7L-1872.1,1909.3z"/>
</svg>
